<svg width="790" height="457" viewBox="0 0 790 457" fill="none" xmlns="http://www.w3.org/2000/svg">
<g filter="url(#filter0_d_548_3312)">
<path fill-rule="evenodd" clip-rule="evenodd" d="M630.155 5.77187C625.789 6.60778 621.541 9.19446 617.905 13.2318C606.616 25.7666 601.039 50.5085 599.458 95.0699C598.527 121.315 600.066 148.364 603.667 169.041C605.823 181.42 609.557 195.736 612.714 203.726L613.925 206.793L613.03 208.517C609.172 215.95 602.329 224.116 597.77 226.726C594.515 228.59 592.179 228.601 589.366 226.767C587.98 225.864 579.98 216.881 578.577 214.653C578.082 213.865 577.997 212.41 577.957 203.943C577.895 190.945 576.887 184.274 573.38 173.64C569.358 161.449 564.351 153.148 555.612 144.188C543.233 131.495 525.705 125.27 509.615 127.852C497.973 129.72 487.461 134.674 476.668 143.379C470.462 148.383 465.724 153.705 461.928 159.934C460.995 161.465 460.132 162.754 460.009 162.798C459.886 162.843 459.253 161.581 458.602 159.993C454.515 150.031 447.503 142.302 439.158 138.558C432.001 135.348 426.092 134.076 418.098 134.025C409.987 133.973 401.621 135.709 394.024 139.018C385.233 142.849 378.711 149.602 373.821 159.935C369.971 168.07 368.072 177.179 366.41 195.486C365.718 203.115 364.355 214.109 363.464 219.249C360.013 239.173 353.572 255.334 344.563 266.677C339.934 272.505 331.656 280.173 331.294 278.969C331.21 278.691 330.506 275.704 329.728 272.331C327.95 264.621 324.842 254.09 322.153 246.668C321.013 243.522 320.08 240.761 320.08 240.534C320.08 240.308 321.049 239.534 322.233 238.815C329.726 234.269 336.465 228.663 342.874 221.644C350.841 212.919 354.813 207.163 358.147 199.51C363.505 187.209 364.945 172.502 361.862 161.567C357.55 146.278 345.549 135.677 329.782 133.23C316.455 131.163 300.4 134.886 290.102 142.433C284.682 146.405 279.903 151.922 277.167 157.364C271.971 167.701 270.846 182.441 274.109 197.433C275.148 202.208 278.081 212.234 279.646 216.363C280.283 218.043 280.804 219.552 280.804 219.716C280.804 220.237 271.359 220.039 267.126 219.43C256.859 217.951 251.387 214.718 248.869 208.643C247.781 206.017 246.511 200.348 246.038 196.003C245.416 190.288 245.021 178.803 244.788 159.651C244.666 149.642 244.413 140.959 244.219 140.11C242.908 134.38 238.042 129.818 232.068 128.716C226.133 127.622 220.239 131.054 217.472 137.214C216.874 138.544 215.939 141.982 215.205 145.541C211.889 161.634 210.985 165.258 206.852 179.006C202.002 195.143 198.74 201.077 190.744 208.305C186.883 211.795 182.959 214.445 178.736 216.415C176.202 217.597 175.567 217.77 175.434 217.318C174.932 215.613 172.092 210.038 170.338 207.314C164.75 198.633 151.477 185.794 142.4 180.29C135.021 175.815 132.091 174.665 108.712 167.066C89.4796 160.814 83.0428 158.623 79.9441 157.275C75.7271 155.439 69.2083 151.817 67.0825 150.128C63.0557 146.931 58.1193 140.519 55.3634 134.908C49.4747 122.918 49.8368 108.522 56.2647 99.0831C61.877 90.8417 71.4921 83.6876 82.2069 79.7809C90.3912 76.7968 97.1519 75.5309 104.922 75.5274C118.866 75.5209 130.126 80.0535 138.149 88.902C142.491 93.6917 144.112 96.8115 146.398 104.785C147.174 107.492 148.232 110.572 148.748 111.628C150.53 115.269 154.168 118.038 158.28 118.88C164.257 120.105 170.582 116.368 173.278 110.017C174.077 108.134 174.17 107.461 174.154 103.693C174.136 99.6304 174.069 99.2621 172.31 93.5368C169.296 83.7301 166.374 77.9313 160.777 70.6477C150.95 57.8603 136.543 49.1866 119.834 45.9974C97.2032 41.6776 71.1993 47.8022 52.1806 61.9314C44.7919 67.4205 38.8526 73.5597 34.0626 80.6598C27.489 90.4032 23.9421 101.782 23.5335 114.438C22.994 131.157 27.6368 146.498 37.4807 160.525C44.4326 170.431 51.0761 176.348 61.4433 181.867C70.5839 186.734 73.262 187.734 102.511 197.199C110.09 199.652 117.765 202.185 119.565 202.826C124.537 204.6 130.605 208.085 134.76 211.554C138.774 214.905 145.093 221.427 147.222 224.416L148.582 226.324L143.806 227.396C141.18 227.985 134.147 229.406 128.178 230.553C80.2504 239.766 55.8798 249.709 38.2514 267.244C24.4527 280.97 16.4531 301.787 18.2505 319.291C19.2576 329.098 22.3114 337.265 28.2428 346.014C30.5584 349.43 36.0192 355.422 39.2898 358.137C46.4095 364.046 55.0202 368.094 63.9235 369.718C79.7243 372.6 106.461 366.145 124.905 354.996C129.166 352.42 137.969 345.752 141.779 342.213C149.868 334.7 157.682 324.958 163.402 315.257C173.353 298.381 179.622 276.063 180.432 254.631L180.651 248.812L185.637 246.63C191.566 244.036 197.195 240.916 201.218 237.994C207.69 233.294 215.337 225.616 219.657 219.479C221.585 216.74 221.738 216.607 222.033 217.421C226.324 229.243 233.153 237.995 242.051 243.076C248.381 246.691 254.901 248.781 264.094 250.142C269.508 250.943 281.775 251.035 287.694 250.319C289.874 250.055 292.027 249.812 292.48 249.779C293.228 249.724 293.501 250.252 295.511 255.659C298.669 264.153 301.225 272.831 303.542 282.933L305.56 291.727L304.714 292.084C303.958 292.404 294.191 295.365 281.148 299.228C265.594 303.835 248.258 313.439 237.91 323.181C228.578 331.967 221.439 344.37 218.758 356.459C218.047 359.659 217.949 361.028 217.944 367.765C217.938 375.773 218.115 377.325 219.708 383.288C222.035 391.996 226.701 399.687 234.064 406.95C246.527 419.247 261.205 425.442 277.875 425.444C286.705 425.446 291.76 424.447 298.547 421.363C305.215 418.332 309.653 415.223 315.905 409.204C321.301 404.009 324.997 398.746 329.182 390.296C334.509 379.539 337.079 368.806 338.019 353.393C338.458 346.191 338.258 325.108 337.695 319.282C337.522 317.49 337.277 314.903 337.15 313.533L336.92 311.041L340.1 309.317C351.967 302.881 364.858 289.696 373.497 275.156C379.77 264.597 385.187 250.364 388.582 235.519C390.958 225.124 392.267 216.094 394.161 197.019C395.422 184.318 396.435 178.815 398.295 174.555C400.25 170.076 401.675 168.647 405.639 167.184C413.201 164.395 420.497 164.09 426.59 166.308C429.391 167.328 430.115 167.767 431.201 169.105C436.242 175.312 439.278 193.776 439.288 218.291C439.292 228.371 440.012 241.034 440.83 245.398C441.956 251.404 445.089 256.174 449.503 258.6C451.686 259.8 452.509 260.04 454.929 260.182C458.452 260.387 460.838 259.687 463.567 257.646C464.645 256.84 466.057 255.435 466.706 254.523C468.744 251.658 469.031 249.997 469.132 240.52C469.267 227.79 469.923 222.354 472.873 209.475C475.139 199.587 476.986 193.937 480.562 185.963C485.189 175.641 487.848 172.074 494.68 167.017C504.134 160.019 513.314 157.016 520.837 158.461C524.814 159.224 529.063 160.931 532.334 163.079C537.563 166.512 542.738 172.955 545.543 179.526C547.055 183.067 548.343 186.976 548.09 187.257C548.015 187.341 546.423 186.709 544.553 185.852C540.189 183.854 535.872 182.648 531.067 182.086C519.009 180.675 504.839 186.429 496.177 196.253C488.283 205.204 483.167 220.979 484.396 232.576C484.936 237.679 485.588 240.286 487.376 244.505C489.565 249.669 492.34 254.05 496.425 258.792C500.227 263.205 503.165 265.631 507.225 267.708C518.109 273.274 532.752 273.041 544.939 267.108C551.935 263.702 559.439 256.997 564.703 249.449C567.023 246.122 567.031 246.116 567.671 246.91C568.736 248.233 573.687 252.384 575.909 253.817C582.277 257.925 590.655 259.859 597.425 258.785C603.935 257.752 611.27 254.304 616.891 249.635C620.01 247.044 627.281 239.292 629.542 236.146L630.758 234.455L633.746 237.194C641.582 244.378 650.101 249.378 660.886 253.124C677.732 258.974 690.01 260.389 723.522 260.345C745.899 260.315 756.9 259.887 760.187 258.919C764.748 257.575 768.779 254.163 770.542 250.155C773.893 242.536 771.265 233.463 764.734 230.106L762.626 229.022L751.601 229.214C745.538 229.319 731.429 229.396 720.249 229.384C698.671 229.361 691.469 228.955 682.524 227.262C671.418 225.159 661.735 221.356 655.134 216.506C652.126 214.297 647.327 209.385 645.835 206.99L644.894 205.479L646.87 199.62C651.084 187.124 654.446 175.224 656.156 166.748C657.377 160.692 659.557 146.892 660.636 138.381C662.988 119.83 665.62 83.1939 665.634 68.816C665.652 49.7871 663.477 36.4525 658.618 25.7834C655.858 19.7255 650.617 12.7987 646.523 9.79964C641.62 6.20726 635.609 4.72823 630.155 5.77187ZM636.512 48.4729C637.577 54.2047 637.817 59.3221 637.636 72.4571C637.407 89.1357 635.45 116.33 633.244 133.481C631.945 143.577 630.096 155.243 629.795 155.243C629.54 155.243 629.431 154.387 628.436 144.511C627.41 134.338 627.065 125.78 627.06 110.401C627.052 88.2082 627.95 74.0672 630.37 58.2762C631.326 52.0408 632.566 46.3006 633.663 43.0389L634.398 40.8543L635.18 43.1796C635.61 44.4586 636.209 46.8406 636.512 48.4729ZM229.238 67.0484C223.427 69.4327 219.478 75.8279 219.478 82.8555C219.478 89.6436 223.095 95.3206 228.762 97.4243C236.249 100.204 243.762 95.9388 246.654 87.2669C249.281 79.3919 246.274 71.0501 239.548 67.5524C236.892 66.1715 231.963 65.9304 229.238 67.0484ZM325.195 163.69C330.285 164.4 333.453 166.302 334.966 169.557C336.294 172.414 335.837 178.602 333.863 184.47C331.618 191.144 322.926 201.626 314.27 208.098C311.362 210.271 308.382 212.142 308.217 211.898C307.689 211.117 304.184 201.549 303.175 198.134C299.843 186.856 299.212 180.513 300.777 174.023C301.077 172.779 301.701 171.747 303.016 170.323C306.635 166.4 312.416 164.254 321.812 163.343C322.101 163.315 323.623 163.471 325.195 163.69ZM531.117 213.315C534.284 214.211 539.726 217.321 543.245 220.245C544.995 221.699 546.429 223.062 546.431 223.273C546.433 223.484 545.994 224.691 545.455 225.956C543.499 230.551 538.596 236.238 534.73 238.396C529.902 241.09 522.504 241.61 518.636 239.527C516.995 238.644 513.994 234.833 512.714 232.008C511.448 229.216 511.941 225.702 514.302 220.677C515.661 217.782 517.121 216.298 520.101 214.781C524.184 212.701 527.426 212.269 531.117 213.315ZM151.983 262.028C151.013 269.062 150.074 273.495 148.283 279.495C142.935 297.414 132.251 312.844 117.676 323.699C108.388 330.617 99.1288 334.777 86.6624 337.635C72.9529 340.777 65.5414 340.12 58.1117 335.102C55.1098 333.076 50.5731 328.087 48.715 324.771C46.3722 320.59 45.7435 318.015 45.9244 313.341C46.4105 300.773 54.9396 288.94 69.6889 280.372C82.536 272.908 105.248 266.027 135.413 260.46C139.487 259.708 144.991 258.61 147.644 258.02C150.297 257.43 152.511 256.979 152.565 257.019C152.619 257.059 152.357 259.313 151.983 262.028ZM310.207 324.552C310.687 328.772 310.83 341.471 310.477 348.602C309.741 363.502 307.837 370.895 302.343 380.171C299.414 385.117 293.327 390.508 288.073 392.811C280.158 396.281 268.06 394.878 259.531 389.501C254.123 386.092 248.889 380.809 247.267 377.123C245.128 372.26 244.808 365.634 246.488 361.008C248.727 354.84 253.234 348.54 258.279 344.526C267.13 337.484 278.42 331.93 292.001 327.939C295.98 326.769 301.407 325.14 304.06 324.318C306.712 323.495 309.134 322.802 309.441 322.777C309.858 322.743 310.053 323.194 310.207 324.552Z" fill="#574B9F"/>
</g>
<defs>
<filter id="filter0_d_548_3312" x="0" y="0.444336" width="790" height="456" filterUnits="userSpaceOnUse" color-interpolation-filters="sRGB">
<feFlood flood-opacity="0" result="BackgroundImageFix"/>
<feColorMatrix in="SourceAlpha" type="matrix" values="0 0 0 0 0 0 0 0 0 0 0 0 0 0 0 0 0 0 127 0" result="hardAlpha"/>
<feOffset dy="13"/>
<feGaussianBlur stdDeviation="9"/>
<feComposite in2="hardAlpha" operator="out"/>
<feColorMatrix type="matrix" values="0 0 0 0 0 0 0 0 0 0 0 0 0 0 0 0 0 0 0.3 0"/>
<feBlend mode="normal" in2="BackgroundImageFix" result="effect1_dropShadow_548_3312"/>
<feBlend mode="normal" in="SourceGraphic" in2="effect1_dropShadow_548_3312" result="shape"/>
</filter>
</defs>
</svg>
