<svg width="81" height="81" viewBox="0 0 81 81" fill="none" xmlns="http://www.w3.org/2000/svg">
<g clip-path="url(#clip0_548_3326)">
<rect width="81" height="81" rx="40.5" fill="#DDDBEC"/>
<path d="M81 70.8547V81.0034H0V70.8919C4.71133 64.5957 10.8267 59.4855 17.8598 55.9678C24.8929 52.4501 32.6497 50.6218 40.5135 50.6284C57.0645 50.6284 71.766 58.5731 81 70.8547ZM54.0068 30.375C54.0068 33.9554 52.5844 37.3892 50.0527 39.9209C47.521 42.4527 44.0872 43.875 40.5067 43.875C36.9263 43.875 33.4925 42.4527 30.9608 39.9209C28.4291 37.3892 27.0067 33.9554 27.0067 30.375C27.0067 26.7946 28.4291 23.3608 30.9608 20.8291C33.4925 18.2973 36.9263 16.875 40.5067 16.875C44.0872 16.875 47.521 18.2973 50.0527 20.8291C52.5844 23.3608 54.0068 26.7946 54.0068 30.375Z" fill="#9A93C5"/>
</g>
<defs>
<clipPath id="clip0_548_3326">
<rect width="81" height="81" rx="40.5" fill="white"/>
</clipPath>
</defs>
</svg>
