<svg width="189" height="95" viewBox="0 0 189 95" fill="none" xmlns="http://www.w3.org/2000/svg">
<path fill-rule="evenodd" clip-rule="evenodd" d="M153.661 2.68679C152.596 2.87066 151.56 3.43964 150.673 4.32772C147.92 7.08493 146.559 12.5273 146.174 22.3292C145.947 28.1023 146.322 34.0521 147.2 38.6002C147.726 41.3232 148.637 44.4722 149.407 46.2299L149.702 46.9043L149.484 47.2837C148.543 48.9187 146.874 50.7148 145.762 51.2891C144.968 51.6989 144.399 51.7015 143.712 51.298C143.374 51.0993 141.423 49.1233 141.081 48.6334C140.96 48.4601 140.94 48.1401 140.93 46.2776C140.915 43.4184 140.669 41.9509 139.813 39.6119C138.833 36.9303 137.611 35.1044 135.48 33.1335C132.461 30.3415 128.186 28.9722 124.261 29.5401C121.422 29.9511 118.858 31.0407 116.226 32.9555C114.712 34.0563 113.557 35.2269 112.631 36.5971C112.403 36.9337 112.193 37.2173 112.163 37.2271C112.133 37.2369 111.978 36.9593 111.819 36.6101C110.822 34.4187 109.112 32.7185 107.077 31.8951C105.331 31.1889 103.89 30.9092 101.941 30.898C99.9622 30.8866 97.9217 31.2683 96.069 31.9964C93.9249 32.8389 92.3341 34.3243 91.1414 36.5972C90.2024 38.3868 89.7393 40.3904 89.334 44.4173C89.1651 46.0954 88.8327 48.5136 88.6155 49.6442C87.7736 54.0269 86.2028 57.5818 84.0055 60.0769C82.8764 61.3588 80.8575 63.0455 80.7692 62.7806C80.7488 62.7195 80.577 62.0625 80.3873 61.3206C79.9537 59.6245 79.1955 57.308 78.5398 55.6756C78.2616 54.9834 78.0341 54.3762 78.0341 54.3263C78.0341 54.2765 78.2704 54.1063 78.5593 53.9482C80.3868 52.9482 82.0304 51.715 83.5936 50.1712C85.5367 48.2519 86.5055 46.9858 87.3185 45.3025C88.6255 42.5966 88.9767 39.3617 88.2246 36.9563C87.173 33.5932 84.246 31.2613 80.4004 30.7232C77.1499 30.2684 73.2341 31.0874 70.7225 32.7476C69.4006 33.6212 68.2349 34.8347 67.5678 36.0317C66.3004 38.3055 66.026 41.5479 66.8218 44.8455C67.0753 45.8958 67.7907 48.1013 68.1723 49.0094C68.3277 49.3789 68.4548 49.7108 68.4548 49.7471C68.4548 49.8617 66.1511 49.8181 65.1189 49.684C62.6147 49.3587 61.2801 48.6476 60.666 47.3113C60.4006 46.7338 60.0909 45.4868 59.9755 44.5309C59.8237 43.274 59.7274 40.7476 59.6705 36.5347C59.6407 34.3332 59.5791 32.4231 59.5317 32.2366C59.212 30.9761 58.0252 29.9725 56.5681 29.7303C55.1207 29.4896 53.6831 30.2445 53.0083 31.5995C52.8625 31.8921 52.6342 32.6483 52.4553 33.4311C51.6466 36.9711 51.426 37.7681 50.4181 40.7922C49.2352 44.3418 48.4395 45.6471 46.4892 47.237C45.5476 48.0047 44.5907 48.5876 43.5606 49.021C42.9427 49.2809 42.7878 49.3191 42.7553 49.2195C42.6328 48.8446 41.94 47.6183 41.5123 47.019C40.1495 45.1095 36.9121 42.2854 34.6984 41.0748C32.8985 40.0904 32.184 39.8374 26.4819 38.1659C21.7911 36.7907 20.2212 36.3088 19.4655 36.0121C18.4369 35.6083 16.847 34.8116 16.3285 34.4402C15.3464 33.7368 14.1424 32.3264 13.4703 31.0922C12.034 28.4549 12.1224 25.2882 13.6901 23.212C15.0589 21.3992 17.404 19.8255 20.0174 18.9662C22.0135 18.3098 23.6624 18.0313 25.5576 18.0306C28.9585 18.0291 31.7046 19.0261 33.6615 20.9725C34.7206 22.0261 35.1158 22.7123 35.6734 24.4661C35.8628 25.0617 36.1207 25.7391 36.2467 25.9714C36.6812 26.7723 37.5686 27.3813 38.5714 27.5666C40.0292 27.8362 41.5719 27.014 42.2294 25.6172C42.4243 25.2029 42.4471 25.0548 42.443 24.2261C42.4387 23.3324 42.4224 23.2514 41.9932 21.992C41.2581 19.8349 40.5456 18.5593 39.1803 16.9572C36.7836 14.1444 33.2699 12.2365 29.1946 11.535C23.6749 10.5848 17.3326 11.932 12.694 15.0399C10.8919 16.2473 9.44332 17.5978 8.27506 19.1595C6.67177 21.3027 5.80669 23.8057 5.70703 26.5896C5.57544 30.267 6.70782 33.6417 9.10872 36.727C10.8043 38.906 12.4246 40.2075 14.9532 41.4217C17.1825 42.4922 17.8357 42.7121 24.9694 44.7941C26.8181 45.3337 28.6898 45.8907 29.1289 46.0319C30.3416 46.422 31.8216 47.1887 32.8348 47.9516C33.8139 48.6888 35.3552 50.1234 35.8744 50.7808L36.2061 51.2006L35.0413 51.4363C34.4007 51.5659 32.6854 51.8784 31.2296 52.1308C19.5402 54.1573 13.5962 56.3445 9.29669 60.2016C5.93122 63.2207 3.98013 67.7997 4.41852 71.6501C4.66414 73.8072 5.40898 75.6036 6.85563 77.5281C7.42039 78.2795 8.75226 79.5976 9.54996 80.1947C11.2864 81.4947 13.3866 82.3851 15.5581 82.7423C19.4118 83.3761 25.9328 81.9563 30.4313 79.5039C31.4707 78.9373 33.6177 77.4705 34.5469 76.6921C36.5197 75.0395 38.4256 72.8967 39.8206 70.7628C42.2477 67.0507 43.7767 62.1413 43.9741 57.4272L44.0278 56.1472L45.2437 55.6672C46.6897 55.0965 48.0626 54.4102 49.0439 53.7675C50.6224 52.7338 52.4874 51.0447 53.5411 49.6948C54.0114 49.0924 54.0486 49.0632 54.1206 49.2422C55.1673 51.8426 56.8328 53.7677 59.003 54.8854C60.5469 55.6806 62.137 56.1402 64.3793 56.4396C65.6996 56.6159 68.6916 56.6361 70.1354 56.4786C70.6668 56.4206 71.192 56.3671 71.3024 56.3598C71.485 56.3477 71.5515 56.464 72.0419 57.6533C72.8121 59.5216 73.4354 61.4304 74.0006 63.6526L74.4926 65.5869L74.2863 65.6655C74.1019 65.7359 71.7199 66.3872 68.5388 67.237C64.7452 68.2503 60.517 70.3629 57.9931 72.5057C55.717 74.4383 53.9759 77.1666 53.3218 79.8256C53.1486 80.5295 53.1246 80.8307 53.1234 82.3127C53.122 84.0741 53.165 84.4154 53.5536 85.727C54.1212 87.6426 55.2592 89.3344 57.055 90.9321C60.0948 93.6368 63.6746 94.9996 67.7405 95.0001C69.8939 95.0003 71.127 94.7807 72.7823 94.1022C74.4085 93.4356 75.491 92.7517 77.0159 91.4277C78.332 90.2849 79.2333 89.1273 80.254 87.2687C81.5534 84.9025 82.1802 82.5417 82.4093 79.1512C82.5164 77.567 82.4676 72.9295 82.3304 71.648C82.2882 71.2539 82.2284 70.6848 82.1975 70.3834L82.1413 69.8354L82.9169 69.4561C85.8114 68.0404 88.9553 65.1401 91.0624 61.9418C92.5925 59.6193 93.9137 56.4884 94.7415 53.223C95.3212 50.9367 95.6404 48.9503 96.1023 44.7545C96.4098 41.9606 96.6569 40.7502 97.1106 39.8131C97.5875 38.828 97.935 38.5135 98.9019 38.1918C100.746 37.5783 102.526 37.5112 104.012 37.9991C104.695 38.2235 104.871 38.3201 105.136 38.6143C106.366 39.9796 107.106 44.0412 107.109 49.4335C107.11 51.6508 107.285 54.4363 107.485 55.3963C107.759 56.7172 108.524 57.7664 109.6 58.3002C110.133 58.5642 110.333 58.617 110.924 58.6481C111.783 58.6933 112.365 58.5392 113.03 58.0903C113.293 57.9131 113.638 57.604 113.796 57.4033C114.293 56.7732 114.363 56.4078 114.388 54.3232C114.421 51.523 114.58 50.3273 115.3 47.4945C115.853 45.3195 116.303 44.0766 117.175 42.3225C118.304 40.0521 118.952 39.2674 120.619 38.155C122.924 36.6158 125.163 35.9553 126.998 36.273C127.968 36.4409 129.005 36.8163 129.803 37.2888C131.078 38.0441 132.34 39.4613 133.024 40.9066C133.393 41.6855 133.707 42.5453 133.645 42.6072C133.627 42.6256 133.239 42.4866 132.783 42.2982C131.718 41.8585 130.665 41.5933 129.493 41.4696C126.553 41.1594 123.097 42.425 120.984 44.5859C119.059 46.5549 117.811 50.0249 118.11 52.5758C118.242 53.6983 118.401 54.2716 118.837 55.1998C119.371 56.3357 120.048 57.2992 121.044 58.3424C121.972 59.3132 122.688 59.8468 123.678 60.3035C126.333 61.528 129.904 61.4767 132.877 60.1716C134.583 59.4223 136.413 57.9475 137.697 56.2873C138.263 55.5555 138.265 55.5541 138.421 55.7288C138.681 56.0197 139.888 56.9328 140.43 57.2481C141.983 58.1516 144.027 58.5771 145.678 58.3408C147.266 58.1135 149.055 57.3552 150.426 56.3281C151.187 55.7582 152.96 54.053 153.511 53.361L153.808 52.9891L154.537 53.5915C156.448 55.1718 158.526 56.2717 161.156 57.0955C165.265 58.3824 168.259 58.6937 176.433 58.6839C181.891 58.6773 184.574 58.5833 185.375 58.3703C186.488 58.0747 187.471 57.3242 187.901 56.4425C188.718 54.7666 188.077 52.7709 186.484 52.0324L185.97 51.794L183.281 51.8362C181.802 51.8594 178.361 51.8762 175.635 51.8735C170.372 51.8685 168.615 51.7794 166.433 51.4068C163.725 50.9442 161.363 50.1078 159.753 49.041C159.02 48.5549 157.849 47.4746 157.485 46.9477L157.256 46.6155L157.737 45.3267C158.765 42.5779 159.585 39.9602 160.002 38.096C160.3 36.7638 160.832 33.7282 161.095 31.8562C161.669 27.7756 162.311 19.7169 162.314 16.5543C162.318 12.3686 161.788 9.43546 160.603 7.08864C159.93 5.75611 158.651 4.23245 157.653 3.57276C156.457 2.78256 154.991 2.45723 153.661 2.68679ZM155.211 12.0795C155.471 13.3403 155.529 14.466 155.485 17.3552C155.43 21.0239 154.952 27.0057 154.414 30.7784C154.097 32.9991 153.646 35.5652 153.573 35.5652C153.511 35.5652 153.484 35.377 153.241 33.2047C152.991 30.9669 152.907 29.0845 152.906 25.7015C152.904 20.8199 153.123 17.7094 153.713 14.2359C153.946 12.8643 154.249 11.6017 154.516 10.8842L154.696 10.4037L154.886 10.9152C154.991 11.1965 155.137 11.7205 155.211 12.0795ZM55.878 16.1655C54.4606 16.69 53.4975 18.0967 53.4975 19.6425C53.4975 21.1356 54.3798 22.3844 55.7618 22.8471C57.5879 23.4585 59.4202 22.5204 60.1257 20.6129C60.7664 18.8806 60.033 17.0457 58.3925 16.2763C57.7448 15.9726 56.5426 15.9196 55.878 16.1655ZM79.2816 37.4233C80.5231 37.5794 81.2957 37.9979 81.6647 38.7138C81.9888 39.3423 81.8772 40.7033 81.3958 41.9941C80.8483 43.4621 78.7281 45.768 76.6171 47.1915C75.9079 47.6696 75.181 48.0811 75.1407 48.0273C75.0119 47.8556 74.1571 45.7508 73.9111 44.9998C73.0984 42.519 72.9446 41.1238 73.3261 39.6962C73.3993 39.4226 73.5516 39.1956 73.8722 38.8822C74.7548 38.0194 76.1648 37.5472 78.4565 37.3468C78.5271 37.3407 78.8983 37.3751 79.2816 37.4233ZM129.506 48.3389C130.278 48.5362 131.605 49.2203 132.464 49.8634C132.891 50.1833 133.24 50.4831 133.241 50.5295C133.241 50.5758 133.134 50.8414 133.003 51.1196C132.526 52.1303 131.33 53.3813 130.387 53.8559C129.209 54.4486 127.405 54.563 126.462 54.1049C126.061 53.9104 125.329 53.0723 125.017 52.4508C124.709 51.8368 124.829 51.0638 125.404 49.9584C125.736 49.3217 126.092 48.9952 126.819 48.6614C127.815 48.2039 128.605 48.109 129.506 48.3389ZM37.0356 59.0543C36.7991 60.6015 36.5701 61.5764 36.1333 62.8964C34.8289 66.8378 32.2229 70.232 28.6682 72.6196C26.4029 74.1413 24.1446 75.0564 21.104 75.685C17.7603 76.3762 15.9527 76.2316 14.1406 75.128C13.4084 74.6822 12.3019 73.5849 11.8488 72.8554C11.2774 71.9357 11.124 71.3693 11.1681 70.3413C11.2867 67.5767 13.3669 64.9739 16.9642 63.0891C20.0976 61.4474 25.6369 59.9339 32.9942 58.7093C33.9879 58.5439 35.3303 58.3023 35.9773 58.1725C36.6243 58.0427 37.1645 57.9436 37.1777 57.9524C37.1908 57.9612 37.1269 58.457 37.0356 59.0543ZM75.6261 72.8072C75.7431 73.7356 75.778 76.5289 75.6921 78.0974C75.5126 81.3748 75.048 83.001 73.7081 85.0416C72.9936 86.1295 71.5092 87.3154 70.2277 87.822C68.2971 88.5851 65.3466 88.2765 63.2664 87.0939C61.9473 86.3439 60.6707 85.1818 60.2752 84.371C59.7536 83.3013 59.6754 81.8439 60.0852 80.8263C60.6313 79.4695 61.7306 78.0837 62.9611 77.2008C65.1197 75.6518 67.8734 74.4302 71.1857 73.5522C72.1563 73.295 73.4797 72.9365 74.1268 72.7557C74.7738 72.5749 75.3645 72.4224 75.4394 72.4169C75.541 72.4093 75.5885 72.5086 75.6261 72.8072Z" fill="#EEEDF5"/>
<path fill-rule="evenodd" clip-rule="evenodd" d="M153.661 2.68679C152.596 2.87066 151.56 3.43964 150.673 4.32772C147.92 7.08493 146.559 12.5273 146.174 22.3292C145.947 28.1023 146.322 34.0521 147.2 38.6002C147.726 41.3232 148.637 44.4722 149.407 46.2299L149.702 46.9043L149.484 47.2837C148.543 48.9187 146.874 50.7148 145.762 51.2891C144.968 51.6989 144.399 51.7015 143.712 51.298C143.374 51.0993 141.423 49.1233 141.081 48.6334C140.96 48.4601 140.94 48.1401 140.93 46.2776C140.915 43.4184 140.669 41.9509 139.813 39.6119C138.833 36.9303 137.611 35.1044 135.48 33.1335C132.461 30.3415 128.186 28.9722 124.261 29.5401C121.422 29.9511 118.858 31.0407 116.226 32.9555C114.712 34.0563 113.557 35.2269 112.631 36.5971C112.403 36.9337 112.193 37.2173 112.163 37.2271C112.133 37.2369 111.978 36.9593 111.819 36.6101C110.822 34.4187 109.112 32.7185 107.077 31.8951C105.331 31.1889 103.89 30.9092 101.941 30.898C99.9622 30.8866 97.9217 31.2683 96.069 31.9964C93.9249 32.8389 92.3341 34.3243 91.1414 36.5972C90.2024 38.3868 89.7393 40.3904 89.334 44.4173C89.1651 46.0954 88.8327 48.5136 88.6155 49.6442C87.7736 54.0269 86.2028 57.5818 84.0055 60.0769C82.8764 61.3588 80.8575 63.0455 80.7692 62.7806C80.7488 62.7195 80.577 62.0625 80.3873 61.3206C79.9537 59.6245 79.1955 57.308 78.5398 55.6756C78.2616 54.9834 78.0341 54.3762 78.0341 54.3263C78.0341 54.2765 78.2704 54.1063 78.5593 53.9482C80.3868 52.9482 82.0304 51.715 83.5936 50.1712C85.5367 48.2519 86.5055 46.9858 87.3185 45.3025C88.6255 42.5966 88.9767 39.3617 88.2246 36.9563C87.173 33.5932 84.246 31.2613 80.4004 30.7232C77.1499 30.2684 73.2341 31.0874 70.7225 32.7476C69.4006 33.6212 68.2349 34.8347 67.5678 36.0317C66.3004 38.3055 66.026 41.5479 66.8218 44.8455C67.0753 45.8958 67.7907 48.1013 68.1723 49.0094C68.3277 49.3789 68.4548 49.7108 68.4548 49.7471C68.4548 49.8617 66.1511 49.8181 65.1189 49.684C62.6147 49.3587 61.2801 48.6476 60.666 47.3113C60.4006 46.7338 60.0909 45.4868 59.9755 44.5309C59.8237 43.274 59.7274 40.7476 59.6705 36.5347C59.6407 34.3332 59.5791 32.4231 59.5317 32.2366C59.212 30.9761 58.0252 29.9725 56.5681 29.7303C55.1207 29.4896 53.6831 30.2445 53.0083 31.5995C52.8625 31.8921 52.6342 32.6483 52.4553 33.4311C51.6466 36.9711 51.426 37.7681 50.4181 40.7922C49.2352 44.3418 48.4395 45.6471 46.4892 47.237C45.5476 48.0047 44.5907 48.5876 43.5606 49.021C42.9427 49.2809 42.7878 49.3191 42.7553 49.2195C42.6328 48.8446 41.94 47.6183 41.5123 47.019C40.1495 45.1095 36.9121 42.2854 34.6984 41.0748C32.8985 40.0904 32.184 39.8374 26.4819 38.1659C21.7911 36.7907 20.2212 36.3088 19.4655 36.0121C18.4369 35.6083 16.847 34.8116 16.3285 34.4402C15.3464 33.7368 14.1424 32.3264 13.4703 31.0922C12.034 28.4549 12.1224 25.2882 13.6901 23.212C15.0589 21.3992 17.404 19.8255 20.0174 18.9662C22.0135 18.3098 23.6624 18.0313 25.5576 18.0306C28.9585 18.0291 31.7046 19.0261 33.6615 20.9725C34.7206 22.0261 35.1158 22.7123 35.6734 24.4661C35.8628 25.0617 36.1207 25.7391 36.2467 25.9714C36.6812 26.7723 37.5686 27.3813 38.5714 27.5666C40.0292 27.8362 41.5719 27.014 42.2294 25.6172C42.4243 25.2029 42.4471 25.0548 42.443 24.2261C42.4387 23.3324 42.4224 23.2514 41.9932 21.992C41.2581 19.8349 40.5456 18.5593 39.1803 16.9572C36.7836 14.1444 33.2699 12.2365 29.1946 11.535C23.6749 10.5848 17.3326 11.932 12.694 15.0399C10.8919 16.2473 9.44332 17.5978 8.27506 19.1595C6.67177 21.3027 5.80669 23.8057 5.70703 26.5896C5.57544 30.267 6.70782 33.6417 9.10872 36.727C10.8043 38.906 12.4246 40.2075 14.9532 41.4217C17.1825 42.4922 17.8357 42.7121 24.9694 44.7941C26.8181 45.3337 28.6898 45.8907 29.1289 46.0319C30.3416 46.422 31.8216 47.1887 32.8348 47.9516C33.8139 48.6888 35.3552 50.1234 35.8744 50.7808L36.2061 51.2006L35.0413 51.4363C34.4007 51.5659 32.6854 51.8784 31.2296 52.1308C19.5402 54.1573 13.5962 56.3445 9.29669 60.2016C5.93122 63.2207 3.98013 67.7997 4.41852 71.6501C4.66414 73.8072 5.40898 75.6036 6.85563 77.5281C7.42039 78.2795 8.75226 79.5976 9.54996 80.1947C11.2864 81.4947 13.3866 82.3851 15.5581 82.7423C19.4118 83.3761 25.9328 81.9563 30.4313 79.5039C31.4707 78.9373 33.6177 77.4705 34.5469 76.6921C36.5197 75.0395 38.4256 72.8967 39.8206 70.7628C42.2477 67.0507 43.7767 62.1413 43.9741 57.4272L44.0278 56.1472L45.2437 55.6672C46.6897 55.0965 48.0626 54.4102 49.0439 53.7675C50.6224 52.7338 52.4874 51.0447 53.5411 49.6948C54.0114 49.0924 54.0486 49.0632 54.1206 49.2422C55.1673 51.8426 56.8328 53.7677 59.003 54.8854C60.5469 55.6806 62.137 56.1402 64.3793 56.4396C65.6996 56.6159 68.6916 56.6361 70.1354 56.4786C70.6668 56.4206 71.192 56.3671 71.3024 56.3598C71.485 56.3477 71.5515 56.464 72.0419 57.6533C72.8121 59.5216 73.4354 61.4304 74.0006 63.6526L74.4926 65.5869L74.2863 65.6655C74.1019 65.7359 71.7199 66.3872 68.5388 67.237C64.7452 68.2503 60.517 70.3629 57.9931 72.5057C55.717 74.4383 53.9759 77.1666 53.3218 79.8256C53.1486 80.5295 53.1246 80.8307 53.1234 82.3127C53.122 84.0741 53.165 84.4154 53.5536 85.727C54.1212 87.6426 55.2592 89.3344 57.055 90.9321C60.0948 93.6368 63.6746 94.9996 67.7405 95.0001C69.8939 95.0003 71.127 94.7807 72.7823 94.1022C74.4085 93.4356 75.491 92.7517 77.0159 91.4277C78.332 90.2849 79.2333 89.1273 80.254 87.2687C81.5534 84.9025 82.1802 82.5417 82.4093 79.1512C82.5164 77.567 82.4676 72.9295 82.3304 71.648C82.2882 71.2539 82.2284 70.6848 82.1975 70.3834L82.1413 69.8354L82.9169 69.4561C85.8114 68.0404 88.9553 65.1401 91.0624 61.9418C92.5925 59.6193 93.9137 56.4884 94.7415 53.223C95.3212 50.9367 95.6404 48.9503 96.1023 44.7545C96.4098 41.9606 96.6569 40.7502 97.1106 39.8131C97.5875 38.828 97.935 38.5135 98.9019 38.1918C100.746 37.5783 102.526 37.5112 104.012 37.9991C104.695 38.2235 104.871 38.3201 105.136 38.6143C106.366 39.9796 107.106 44.0412 107.109 49.4335C107.11 51.6508 107.285 54.4363 107.485 55.3963C107.759 56.7172 108.524 57.7664 109.6 58.3002C110.133 58.5642 110.333 58.617 110.924 58.6481C111.783 58.6933 112.365 58.5392 113.03 58.0903C113.293 57.9131 113.638 57.604 113.796 57.4033C114.293 56.7732 114.363 56.4078 114.388 54.3232C114.421 51.523 114.58 50.3273 115.3 47.4945C115.853 45.3195 116.303 44.0766 117.175 42.3225C118.304 40.0521 118.952 39.2674 120.619 38.155C122.924 36.6158 125.163 35.9553 126.998 36.273C127.968 36.4409 129.005 36.8163 129.803 37.2888C131.078 38.0441 132.34 39.4613 133.024 40.9066C133.393 41.6855 133.707 42.5453 133.645 42.6072C133.627 42.6256 133.239 42.4866 132.783 42.2982C131.718 41.8585 130.665 41.5933 129.493 41.4696C126.553 41.1594 123.097 42.425 120.984 44.5859C119.059 46.5549 117.811 50.0249 118.11 52.5758C118.242 53.6983 118.401 54.2716 118.837 55.1998C119.371 56.3357 120.048 57.2992 121.044 58.3424C121.972 59.3132 122.688 59.8468 123.678 60.3035C126.333 61.528 129.904 61.4767 132.877 60.1716C134.583 59.4223 136.413 57.9475 137.697 56.2873C138.263 55.5555 138.265 55.5541 138.421 55.7288C138.681 56.0197 139.888 56.9328 140.43 57.2481C141.983 58.1516 144.027 58.5771 145.678 58.3408C147.266 58.1135 149.055 57.3552 150.426 56.3281C151.187 55.7582 152.96 54.053 153.511 53.361L153.808 52.9891L154.537 53.5915C156.448 55.1718 158.526 56.2717 161.156 57.0955C165.265 58.3824 168.259 58.6937 176.433 58.6839C181.891 58.6773 184.574 58.5833 185.375 58.3703C186.488 58.0747 187.471 57.3242 187.901 56.4425C188.718 54.7666 188.077 52.7709 186.484 52.0324L185.97 51.794L183.281 51.8362C181.802 51.8594 178.361 51.8762 175.635 51.8735C170.372 51.8685 168.615 51.7794 166.433 51.4068C163.725 50.9442 161.363 50.1078 159.753 49.041C159.02 48.5549 157.849 47.4746 157.485 46.9477L157.256 46.6155L157.737 45.3267C158.765 42.5779 159.585 39.9602 160.002 38.096C160.3 36.7638 160.832 33.7282 161.095 31.8562C161.669 27.7756 162.311 19.7169 162.314 16.5543C162.318 12.3686 161.788 9.43546 160.603 7.08864C159.93 5.75611 158.651 4.23245 157.653 3.57276C156.457 2.78256 154.991 2.45723 153.661 2.68679ZM155.211 12.0795C155.471 13.3403 155.529 14.466 155.485 17.3552C155.43 21.0239 154.952 27.0057 154.414 30.7784C154.097 32.9991 153.646 35.5652 153.573 35.5652C153.511 35.5652 153.484 35.377 153.241 33.2047C152.991 30.9669 152.907 29.0845 152.906 25.7015C152.904 20.8199 153.123 17.7094 153.713 14.2359C153.946 12.8643 154.249 11.6017 154.516 10.8842L154.696 10.4037L154.886 10.9152C154.991 11.1965 155.137 11.7205 155.211 12.0795ZM55.878 16.1655C54.4606 16.69 53.4975 18.0967 53.4975 19.6425C53.4975 21.1356 54.3798 22.3844 55.7618 22.8471C57.5879 23.4585 59.4202 22.5204 60.1257 20.6129C60.7664 18.8806 60.033 17.0457 58.3925 16.2763C57.7448 15.9726 56.5426 15.9196 55.878 16.1655ZM79.2816 37.4233C80.5231 37.5794 81.2957 37.9979 81.6647 38.7138C81.9888 39.3423 81.8772 40.7033 81.3958 41.9941C80.8483 43.4621 78.7281 45.768 76.6171 47.1915C75.9079 47.6696 75.181 48.0811 75.1407 48.0273C75.0119 47.8556 74.1571 45.7508 73.9111 44.9998C73.0984 42.519 72.9446 41.1238 73.3261 39.6962C73.3993 39.4226 73.5516 39.1956 73.8722 38.8822C74.7548 38.0194 76.1648 37.5472 78.4565 37.3468C78.5271 37.3407 78.8983 37.3751 79.2816 37.4233ZM129.506 48.3389C130.278 48.5362 131.605 49.2203 132.464 49.8634C132.891 50.1833 133.24 50.4831 133.241 50.5295C133.241 50.5758 133.134 50.8414 133.003 51.1196C132.526 52.1303 131.33 53.3813 130.387 53.8559C129.209 54.4486 127.405 54.563 126.462 54.1049C126.061 53.9104 125.329 53.0723 125.017 52.4508C124.709 51.8368 124.829 51.0638 125.404 49.9584C125.736 49.3217 126.092 48.9952 126.819 48.6614C127.815 48.2039 128.605 48.109 129.506 48.3389ZM37.0356 59.0543C36.7991 60.6015 36.5701 61.5764 36.1333 62.8964C34.8289 66.8378 32.2229 70.232 28.6682 72.6196C26.4029 74.1413 24.1446 75.0564 21.104 75.685C17.7603 76.3762 15.9527 76.2316 14.1406 75.128C13.4084 74.6822 12.3019 73.5849 11.8488 72.8554C11.2774 71.9357 11.124 71.3693 11.1681 70.3413C11.2867 67.5767 13.3669 64.9739 16.9642 63.0891C20.0976 61.4474 25.6369 59.9339 32.9942 58.7093C33.9879 58.5439 35.3303 58.3023 35.9773 58.1725C36.6243 58.0427 37.1645 57.9436 37.1777 57.9524C37.1908 57.9612 37.1269 58.457 37.0356 59.0543ZM75.6261 72.8072C75.7431 73.7356 75.778 76.5289 75.6921 78.0974C75.5126 81.3748 75.048 83.001 73.7081 85.0416C72.9936 86.1295 71.5092 87.3154 70.2277 87.822C68.2971 88.5851 65.3466 88.2765 63.2664 87.0939C61.9473 86.3439 60.6707 85.1818 60.2752 84.371C59.7536 83.3013 59.6754 81.8439 60.0852 80.8263C60.6313 79.4695 61.7306 78.0837 62.9611 77.2008C65.1197 75.6518 67.8734 74.4302 71.1857 73.5522C72.1563 73.295 73.4797 72.9365 74.1268 72.7557C74.7738 72.5749 75.3645 72.4224 75.4394 72.4169C75.541 72.4093 75.5885 72.5086 75.6261 72.8072Z" fill="#BCB7D9"/>
<mask id="path-3-inside-1_548_3323" fill="white">
<path fill-rule="evenodd" clip-rule="evenodd" d="M149.303 0.0720463C148.239 0.255917 147.203 0.824896 146.316 1.71297C143.562 4.47019 142.202 9.91253 141.816 19.7145C141.589 25.4876 141.965 31.4374 142.843 35.9855C143.369 38.7085 144.279 41.8574 145.049 43.6151L145.345 44.2896L145.127 44.6689C144.186 46.304 142.517 48.1001 141.405 48.6743C140.611 49.0842 140.041 49.0867 139.355 48.6832C139.017 48.4845 137.066 46.5086 136.724 46.0187C136.603 45.8453 136.582 45.5253 136.572 43.6628C136.557 40.8037 136.311 39.3362 135.456 36.9971C134.475 34.3155 133.254 32.4897 131.123 30.5188C128.103 27.7267 123.828 26.3574 119.904 26.9254C117.064 27.3364 114.501 28.426 111.868 30.3407C110.355 31.4416 109.199 32.6121 108.273 33.9824C108.046 34.319 107.835 34.6025 107.805 34.6124C107.775 34.6222 107.621 34.3445 107.462 33.9954C106.465 31.804 104.755 30.1038 102.72 29.2804C100.974 28.5742 99.5329 28.2944 97.5832 28.2832C95.6048 28.2718 93.5643 28.6536 91.7116 29.3816C89.5675 30.2242 87.9766 31.7096 86.7839 33.9825C85.845 35.772 85.3819 37.7757 84.9766 41.8026C84.8077 43.4807 84.4753 45.8989 84.2581 47.0295C83.4162 51.4121 81.8453 54.967 79.648 57.4621C78.519 58.7441 76.5 60.4308 76.4118 60.1658C76.3914 60.1047 76.2196 59.4477 76.0299 58.7058C75.5963 57.0098 74.8381 54.6933 74.1823 53.0608C73.9042 52.3687 73.6767 51.7615 73.6767 51.7116C73.6767 51.6618 73.913 51.4915 74.2019 51.3335C76.0294 50.3334 77.673 49.1002 79.2361 47.5564C81.1793 45.6372 82.1481 44.3711 82.9611 42.6878C84.2681 39.9818 84.6192 36.7469 83.8672 34.3415C82.8156 30.9785 79.8885 28.6466 76.043 28.1085C72.7925 27.6536 68.8767 28.4727 66.3651 30.1328C65.0432 31.0065 63.8775 32.22 63.2104 33.4169C61.943 35.6907 61.6686 38.9331 62.4644 42.2307C62.7178 43.281 63.4333 45.4865 63.8149 46.3947C63.9703 46.7642 64.0973 47.0961 64.0973 47.1324C64.0973 47.2469 61.7937 47.2033 60.7615 47.0693C58.2573 46.744 56.9227 46.0328 56.3085 44.6965C56.0432 44.119 55.7334 42.8721 55.6181 41.9162C55.4662 40.6592 55.3699 38.1328 55.313 33.92C55.2833 31.7184 55.2217 29.8084 55.1743 29.6218C54.8546 28.3614 53.6677 27.3578 52.2107 27.1155C50.7633 26.8749 49.3257 27.6298 48.6508 28.9847C48.505 29.2774 48.2768 30.0336 48.0979 30.8164C47.2891 34.3563 47.0686 35.1534 46.0607 38.1774C44.8778 41.727 44.0821 43.0323 42.1318 44.6222C41.1902 45.3899 40.2332 45.9728 39.2031 46.4062C38.5853 46.6661 38.4304 46.7043 38.3979 46.6048C38.2754 46.2299 37.5826 45.0036 37.1549 44.4042C35.792 42.4948 32.5547 39.6706 30.341 38.46C28.5411 37.4757 27.8266 37.2227 22.1245 35.5511C17.4337 34.1759 15.8638 33.694 15.108 33.3974C14.0795 32.9936 12.4896 32.1969 11.9711 31.8254C10.989 31.1221 9.78501 29.7117 9.11286 28.4775C7.67662 25.8401 7.76494 22.6734 9.33268 20.5973C10.7015 18.7844 13.0466 17.2108 15.6599 16.3515C17.6561 15.6951 19.305 15.4166 21.2002 15.4158C24.601 15.4144 27.3472 16.4114 29.3041 18.3578C30.3632 19.4113 30.7584 20.0976 31.3159 21.8514C31.5053 22.447 31.7633 23.1244 31.8893 23.3567C32.3238 24.1576 33.2112 24.7666 34.2139 24.9519C35.6718 25.2214 37.2145 24.3993 37.8719 23.0024C38.0669 22.5881 38.0897 22.44 38.0856 21.6114C38.0812 20.7176 38.0649 20.6366 37.6358 19.3773C36.9007 17.2201 36.1881 15.9446 34.8229 14.3425C32.4262 11.5297 28.9125 9.62176 24.8372 8.92026C19.3175 7.97005 12.9752 9.31725 8.33659 12.4252C6.53449 13.6326 5.0859 14.983 3.91764 16.5448C2.31435 18.688 1.44927 21.1909 1.34961 23.9749C1.21802 27.6523 2.3504 31.027 4.7513 34.1123C6.44685 36.2912 8.06719 37.5928 10.5957 38.8069C12.8251 39.8774 13.4783 40.0974 20.612 42.1794C22.4606 42.719 24.3324 43.276 24.7715 43.4172C25.9842 43.8073 27.4642 44.5739 28.4774 45.3368C29.4565 46.0741 30.9978 47.5087 31.517 48.166L31.8487 48.5859L30.6839 48.8216C30.0433 48.9512 28.328 49.2637 26.8722 49.5161C15.1827 51.5425 9.23882 53.7298 4.93927 57.5868C1.5738 60.606 -0.377287 65.185 0.0610955 69.0354C0.306714 71.1924 1.05155 72.9889 2.49821 74.9133C3.06297 75.6647 4.39484 76.9829 5.19254 77.58C6.92901 78.8799 9.02916 79.7703 11.2007 80.1275C15.0544 80.7613 21.5754 79.3416 26.0739 76.8892C27.1133 76.3226 29.2602 74.8557 30.1894 74.0774C32.1623 72.4247 34.0682 70.2819 35.4632 68.1481C37.8902 64.4359 39.4193 59.5265 39.6167 54.8124L39.6703 53.5324L40.8863 53.0525C42.3323 52.4818 43.7052 51.7955 44.6865 51.1528C46.265 50.119 48.13 48.43 49.1837 47.0801C49.654 46.4776 49.6912 46.4485 49.7632 46.6275C50.8099 49.2279 52.4754 51.153 54.6456 52.2707C56.1895 53.0659 57.7796 53.5255 60.0219 53.8249C61.3422 54.0012 64.3342 54.0214 65.7779 53.8638C66.3094 53.8058 66.8346 53.7524 66.945 53.745C67.1276 53.733 67.1941 53.8492 67.6845 55.0385C68.4547 56.9068 69.078 58.8157 69.6432 61.0379L70.1352 62.9721L69.9289 63.0508C69.7445 63.1212 67.3625 63.7724 64.1814 64.6222C60.3878 65.6356 56.1596 67.7481 53.6356 69.891C51.3595 71.8235 49.6184 74.5518 48.9644 77.2109C48.7912 77.9148 48.7671 78.216 48.766 79.6979C48.7645 81.4594 48.8076 81.8007 49.1962 83.1123C49.7638 85.0279 50.9017 86.7196 52.6975 88.3173C55.7374 91.022 59.3171 92.3848 63.3831 92.3853C65.5365 92.3856 66.7696 92.166 68.4249 91.4875C70.0511 90.8209 71.1336 90.137 72.6585 88.813C73.9746 87.6702 74.8759 86.5126 75.8966 84.654C77.196 82.2878 77.8228 79.927 78.0519 76.5365C78.159 74.9523 78.1102 70.3148 77.973 69.0333C77.9307 68.6391 77.871 68.0701 77.8401 67.7687L77.7838 67.2207L78.5595 66.8413C81.4539 65.4257 84.5979 62.5254 86.7049 59.3271C88.235 57.0045 89.5562 53.8737 90.3841 50.6083C90.9637 48.3219 91.283 46.3356 91.7449 42.1398C92.0524 39.3459 92.2995 38.1354 92.7531 37.1984C93.2301 36.2133 93.5776 35.8988 94.5445 35.5771C96.3887 34.9636 98.1682 34.8965 99.6542 35.3844C100.337 35.6088 100.514 35.7053 100.779 35.9995C102.008 37.3649 102.749 41.4265 102.751 46.8187C102.752 49.0361 102.928 51.8216 103.127 52.7815C103.402 54.1025 104.166 55.1517 105.243 55.6854C105.775 55.9495 105.976 56.0022 106.566 56.0333C107.425 56.0785 108.007 55.9245 108.673 55.4756C108.936 55.2984 109.28 54.9892 109.438 54.7886C109.935 54.1585 110.006 53.7931 110.03 51.7085C110.063 48.9083 110.223 47.7125 110.943 44.8797C111.495 42.7047 111.946 41.4619 112.818 39.7077C113.947 37.4374 114.595 36.6527 116.261 35.5403C118.567 34.0011 120.806 33.3406 122.641 33.6582C123.611 33.8262 124.647 34.2016 125.445 34.6741C126.72 35.4293 127.983 36.8466 128.667 38.2918C129.036 39.0707 129.35 39.9305 129.288 39.9924C129.27 40.0109 128.881 39.8719 128.425 39.6835C127.361 39.2438 126.308 38.9786 125.136 38.8549C122.195 38.5447 118.739 39.8102 116.626 41.9712C114.701 43.9401 113.453 47.4101 113.753 49.9611C113.885 51.0836 114.044 51.6569 114.48 52.5851C115.014 53.7209 115.691 54.6845 116.687 55.7276C117.614 56.6984 118.331 57.2321 119.321 57.6888C121.975 58.9132 125.547 58.862 128.519 57.5568C130.226 56.8076 132.056 55.3328 133.34 53.6725C133.906 52.9408 133.908 52.9393 134.064 53.1141C134.323 53.4049 135.531 54.3181 136.073 54.6334C137.626 55.5369 139.669 55.9624 141.321 55.726C142.908 55.4988 144.697 54.7404 146.068 53.7133C146.829 53.1434 148.602 51.4383 149.154 50.7463L149.45 50.3743L150.179 50.9768C152.09 52.5571 154.168 53.6569 156.799 54.4808C160.907 55.7676 163.902 56.0789 172.075 56.0692C177.533 56.0626 180.216 55.9685 181.018 55.7556C182.13 55.46 183.114 54.7095 183.544 53.8277C184.361 52.1518 183.72 50.1561 182.127 49.4176L181.613 49.1793L178.924 49.2214C177.445 49.2446 174.004 49.2615 171.277 49.2588C166.014 49.2537 164.258 49.1646 162.076 48.7921C159.367 48.3295 157.006 47.4931 155.396 46.4262C154.662 45.9402 153.492 44.8598 153.128 44.333L152.898 44.0007L153.38 42.712C154.408 39.9632 155.228 37.3455 155.645 35.4812C155.943 34.149 156.475 31.1134 156.738 29.2414C157.311 25.1609 157.953 17.1022 157.957 13.9396C157.961 9.75387 157.431 6.82071 156.245 4.47389C155.572 3.14136 154.294 1.61771 153.296 0.958014C152.1 0.167818 150.634 -0.157518 149.303 0.0720463ZM150.854 9.46478C151.114 10.7256 151.172 11.8512 151.128 14.7405C151.072 18.4092 150.595 24.3909 150.057 28.1637C149.74 30.3844 149.289 32.9505 149.215 32.9505C149.153 32.9505 149.127 32.7622 148.884 30.5899C148.634 28.3522 148.55 26.4697 148.548 23.0867C148.547 18.2052 148.766 15.0946 149.356 11.6212C149.589 10.2496 149.891 8.98694 150.159 8.2695L150.338 7.78896L150.529 8.30044C150.634 8.58177 150.78 9.10573 150.854 9.46478ZM51.5205 13.5507C50.1032 14.0752 49.1401 15.4819 49.1401 17.0278C49.1401 18.5209 50.0224 19.7696 51.4044 20.2324C53.2305 20.8438 55.0628 19.9056 55.7682 17.9981C56.409 16.2659 55.6756 14.431 54.035 13.6616C53.3873 13.3578 52.1852 13.3048 51.5205 13.5507ZM74.9241 34.8086C76.1657 34.9647 76.9383 35.3831 77.3073 36.099C77.6313 36.7275 77.5197 38.0886 77.0383 39.3794C76.4909 40.8474 74.3707 43.1532 72.2596 44.5767C71.5505 45.0548 70.8236 45.4663 70.7832 45.4125C70.6545 45.2409 69.7997 43.1361 69.5536 42.385C68.741 39.9042 68.5871 38.5091 68.9687 37.0814C69.0419 36.8079 69.1942 36.5808 69.5147 36.2675C70.3974 35.4047 71.8074 34.9325 74.0991 34.7321C74.1696 34.7259 74.5409 34.7603 74.9241 34.8086ZM125.148 45.7242C125.921 45.9215 127.248 46.6055 128.106 47.2486C128.533 47.5686 128.883 47.8683 128.883 47.9147C128.884 47.9611 128.777 48.2266 128.645 48.5048C128.168 49.5156 126.972 50.7666 126.029 51.2412C124.852 51.8338 123.047 51.9482 122.104 51.4901C121.704 51.2957 120.972 50.4575 120.66 49.836C120.351 49.222 120.471 48.449 121.047 47.3436C121.379 46.7069 121.735 46.3804 122.461 46.0467C123.457 45.5891 124.248 45.4943 125.148 45.7242ZM32.6781 56.4395C32.4417 57.9868 32.2127 58.9617 31.7758 60.2817C30.4714 64.223 27.8655 67.6173 24.3108 70.0049C22.0454 71.5265 19.7871 72.4417 16.7466 73.0702C13.4029 73.7615 11.5953 73.6169 9.78316 72.5132C9.05101 72.0674 7.94451 70.9702 7.49134 70.2407C6.91993 69.321 6.76658 68.7545 6.8107 67.7265C6.92926 64.962 9.0095 62.3591 12.6068 60.4744C15.7402 58.8326 21.2795 57.3192 28.6368 56.0945C29.6305 55.9291 30.9728 55.6876 31.6199 55.5578C32.2669 55.4279 32.807 55.3289 32.8202 55.3376C32.8334 55.3464 32.7695 55.8422 32.6781 56.4395ZM71.2687 70.1925C71.3857 71.1208 71.4205 73.9141 71.3347 75.4826C71.1552 78.7601 70.6906 80.3863 69.3506 82.4268C68.6362 83.5148 67.1518 84.7006 65.8703 85.2072C63.9397 85.9703 60.9892 85.6618 58.909 84.4791C57.5898 83.7292 56.3133 82.567 55.9178 81.7562C55.3962 80.6866 55.318 79.2292 55.7277 78.2115C56.2739 76.8548 57.3732 75.469 58.6037 74.586C60.7623 73.037 63.5159 71.8154 66.8283 70.9375C67.7989 70.6803 69.1223 70.3218 69.7693 70.141C70.4164 69.9601 71.0071 69.8077 71.082 69.8021C71.1836 69.7945 71.231 69.8939 71.2687 70.1925Z"/>
</mask>
<path fill-rule="evenodd" clip-rule="evenodd" d="M149.303 0.0720463C148.239 0.255917 147.203 0.824896 146.316 1.71297C143.562 4.47019 142.202 9.91253 141.816 19.7145C141.589 25.4876 141.965 31.4374 142.843 35.9855C143.369 38.7085 144.279 41.8574 145.049 43.6151L145.345 44.2896L145.127 44.6689C144.186 46.304 142.517 48.1001 141.405 48.6743C140.611 49.0842 140.041 49.0867 139.355 48.6832C139.017 48.4845 137.066 46.5086 136.724 46.0187C136.603 45.8453 136.582 45.5253 136.572 43.6628C136.557 40.8037 136.311 39.3362 135.456 36.9971C134.475 34.3155 133.254 32.4897 131.123 30.5188C128.103 27.7267 123.828 26.3574 119.904 26.9254C117.064 27.3364 114.501 28.426 111.868 30.3407C110.355 31.4416 109.199 32.6121 108.273 33.9824C108.046 34.319 107.835 34.6025 107.805 34.6124C107.775 34.6222 107.621 34.3445 107.462 33.9954C106.465 31.804 104.755 30.1038 102.72 29.2804C100.974 28.5742 99.5329 28.2944 97.5832 28.2832C95.6048 28.2718 93.5643 28.6536 91.7116 29.3816C89.5675 30.2242 87.9766 31.7096 86.7839 33.9825C85.845 35.772 85.3819 37.7757 84.9766 41.8026C84.8077 43.4807 84.4753 45.8989 84.2581 47.0295C83.4162 51.4121 81.8453 54.967 79.648 57.4621C78.519 58.7441 76.5 60.4308 76.4118 60.1658C76.3914 60.1047 76.2196 59.4477 76.0299 58.7058C75.5963 57.0098 74.8381 54.6933 74.1823 53.0608C73.9042 52.3687 73.6767 51.7615 73.6767 51.7116C73.6767 51.6618 73.913 51.4915 74.2019 51.3335C76.0294 50.3334 77.673 49.1002 79.2361 47.5564C81.1793 45.6372 82.1481 44.3711 82.9611 42.6878C84.2681 39.9818 84.6192 36.7469 83.8672 34.3415C82.8156 30.9785 79.8885 28.6466 76.043 28.1085C72.7925 27.6536 68.8767 28.4727 66.3651 30.1328C65.0432 31.0065 63.8775 32.22 63.2104 33.4169C61.943 35.6907 61.6686 38.9331 62.4644 42.2307C62.7178 43.281 63.4333 45.4865 63.8149 46.3947C63.9703 46.7642 64.0973 47.0961 64.0973 47.1324C64.0973 47.2469 61.7937 47.2033 60.7615 47.0693C58.2573 46.744 56.9227 46.0328 56.3085 44.6965C56.0432 44.119 55.7334 42.8721 55.6181 41.9162C55.4662 40.6592 55.3699 38.1328 55.313 33.92C55.2833 31.7184 55.2217 29.8084 55.1743 29.6218C54.8546 28.3614 53.6677 27.3578 52.2107 27.1155C50.7633 26.8749 49.3257 27.6298 48.6508 28.9847C48.505 29.2774 48.2768 30.0336 48.0979 30.8164C47.2891 34.3563 47.0686 35.1534 46.0607 38.1774C44.8778 41.727 44.0821 43.0323 42.1318 44.6222C41.1902 45.3899 40.2332 45.9728 39.2031 46.4062C38.5853 46.6661 38.4304 46.7043 38.3979 46.6048C38.2754 46.2299 37.5826 45.0036 37.1549 44.4042C35.792 42.4948 32.5547 39.6706 30.341 38.46C28.5411 37.4757 27.8266 37.2227 22.1245 35.5511C17.4337 34.1759 15.8638 33.694 15.108 33.3974C14.0795 32.9936 12.4896 32.1969 11.9711 31.8254C10.989 31.1221 9.78501 29.7117 9.11286 28.4775C7.67662 25.8401 7.76494 22.6734 9.33268 20.5973C10.7015 18.7844 13.0466 17.2108 15.6599 16.3515C17.6561 15.6951 19.305 15.4166 21.2002 15.4158C24.601 15.4144 27.3472 16.4114 29.3041 18.3578C30.3632 19.4113 30.7584 20.0976 31.3159 21.8514C31.5053 22.447 31.7633 23.1244 31.8893 23.3567C32.3238 24.1576 33.2112 24.7666 34.2139 24.9519C35.6718 25.2214 37.2145 24.3993 37.8719 23.0024C38.0669 22.5881 38.0897 22.44 38.0856 21.6114C38.0812 20.7176 38.0649 20.6366 37.6358 19.3773C36.9007 17.2201 36.1881 15.9446 34.8229 14.3425C32.4262 11.5297 28.9125 9.62176 24.8372 8.92026C19.3175 7.97005 12.9752 9.31725 8.33659 12.4252C6.53449 13.6326 5.0859 14.983 3.91764 16.5448C2.31435 18.688 1.44927 21.1909 1.34961 23.9749C1.21802 27.6523 2.3504 31.027 4.7513 34.1123C6.44685 36.2912 8.06719 37.5928 10.5957 38.8069C12.8251 39.8774 13.4783 40.0974 20.612 42.1794C22.4606 42.719 24.3324 43.276 24.7715 43.4172C25.9842 43.8073 27.4642 44.5739 28.4774 45.3368C29.4565 46.0741 30.9978 47.5087 31.517 48.166L31.8487 48.5859L30.6839 48.8216C30.0433 48.9512 28.328 49.2637 26.8722 49.5161C15.1827 51.5425 9.23882 53.7298 4.93927 57.5868C1.5738 60.606 -0.377287 65.185 0.0610955 69.0354C0.306714 71.1924 1.05155 72.9889 2.49821 74.9133C3.06297 75.6647 4.39484 76.9829 5.19254 77.58C6.92901 78.8799 9.02916 79.7703 11.2007 80.1275C15.0544 80.7613 21.5754 79.3416 26.0739 76.8892C27.1133 76.3226 29.2602 74.8557 30.1894 74.0774C32.1623 72.4247 34.0682 70.2819 35.4632 68.1481C37.8902 64.4359 39.4193 59.5265 39.6167 54.8124L39.6703 53.5324L40.8863 53.0525C42.3323 52.4818 43.7052 51.7955 44.6865 51.1528C46.265 50.119 48.13 48.43 49.1837 47.0801C49.654 46.4776 49.6912 46.4485 49.7632 46.6275C50.8099 49.2279 52.4754 51.153 54.6456 52.2707C56.1895 53.0659 57.7796 53.5255 60.0219 53.8249C61.3422 54.0012 64.3342 54.0214 65.7779 53.8638C66.3094 53.8058 66.8346 53.7524 66.945 53.745C67.1276 53.733 67.1941 53.8492 67.6845 55.0385C68.4547 56.9068 69.078 58.8157 69.6432 61.0379L70.1352 62.9721L69.9289 63.0508C69.7445 63.1212 67.3625 63.7724 64.1814 64.6222C60.3878 65.6356 56.1596 67.7481 53.6356 69.891C51.3595 71.8235 49.6184 74.5518 48.9644 77.2109C48.7912 77.9148 48.7671 78.216 48.766 79.6979C48.7645 81.4594 48.8076 81.8007 49.1962 83.1123C49.7638 85.0279 50.9017 86.7196 52.6975 88.3173C55.7374 91.022 59.3171 92.3848 63.3831 92.3853C65.5365 92.3856 66.7696 92.166 68.4249 91.4875C70.0511 90.8209 71.1336 90.137 72.6585 88.813C73.9746 87.6702 74.8759 86.5126 75.8966 84.654C77.196 82.2878 77.8228 79.927 78.0519 76.5365C78.159 74.9523 78.1102 70.3148 77.973 69.0333C77.9307 68.6391 77.871 68.0701 77.8401 67.7687L77.7838 67.2207L78.5595 66.8413C81.4539 65.4257 84.5979 62.5254 86.7049 59.3271C88.235 57.0045 89.5562 53.8737 90.3841 50.6083C90.9637 48.3219 91.283 46.3356 91.7449 42.1398C92.0524 39.3459 92.2995 38.1354 92.7531 37.1984C93.2301 36.2133 93.5776 35.8988 94.5445 35.5771C96.3887 34.9636 98.1682 34.8965 99.6542 35.3844C100.337 35.6088 100.514 35.7053 100.779 35.9995C102.008 37.3649 102.749 41.4265 102.751 46.8187C102.752 49.0361 102.928 51.8216 103.127 52.7815C103.402 54.1025 104.166 55.1517 105.243 55.6854C105.775 55.9495 105.976 56.0022 106.566 56.0333C107.425 56.0785 108.007 55.9245 108.673 55.4756C108.936 55.2984 109.28 54.9892 109.438 54.7886C109.935 54.1585 110.006 53.7931 110.03 51.7085C110.063 48.9083 110.223 47.7125 110.943 44.8797C111.495 42.7047 111.946 41.4619 112.818 39.7077C113.947 37.4374 114.595 36.6527 116.261 35.5403C118.567 34.0011 120.806 33.3406 122.641 33.6582C123.611 33.8262 124.647 34.2016 125.445 34.6741C126.72 35.4293 127.983 36.8466 128.667 38.2918C129.036 39.0707 129.35 39.9305 129.288 39.9924C129.27 40.0109 128.881 39.8719 128.425 39.6835C127.361 39.2438 126.308 38.9786 125.136 38.8549C122.195 38.5447 118.739 39.8102 116.626 41.9712C114.701 43.9401 113.453 47.4101 113.753 49.9611C113.885 51.0836 114.044 51.6569 114.48 52.5851C115.014 53.7209 115.691 54.6845 116.687 55.7276C117.614 56.6984 118.331 57.2321 119.321 57.6888C121.975 58.9132 125.547 58.862 128.519 57.5568C130.226 56.8076 132.056 55.3328 133.34 53.6725C133.906 52.9408 133.908 52.9393 134.064 53.1141C134.323 53.4049 135.531 54.3181 136.073 54.6334C137.626 55.5369 139.669 55.9624 141.321 55.726C142.908 55.4988 144.697 54.7404 146.068 53.7133C146.829 53.1434 148.602 51.4383 149.154 50.7463L149.45 50.3743L150.179 50.9768C152.09 52.5571 154.168 53.6569 156.799 54.4808C160.907 55.7676 163.902 56.0789 172.075 56.0692C177.533 56.0626 180.216 55.9685 181.018 55.7556C182.13 55.46 183.114 54.7095 183.544 53.8277C184.361 52.1518 183.72 50.1561 182.127 49.4176L181.613 49.1793L178.924 49.2214C177.445 49.2446 174.004 49.2615 171.277 49.2588C166.014 49.2537 164.258 49.1646 162.076 48.7921C159.367 48.3295 157.006 47.4931 155.396 46.4262C154.662 45.9402 153.492 44.8598 153.128 44.333L152.898 44.0007L153.38 42.712C154.408 39.9632 155.228 37.3455 155.645 35.4812C155.943 34.149 156.475 31.1134 156.738 29.2414C157.311 25.1609 157.953 17.1022 157.957 13.9396C157.961 9.75387 157.431 6.82071 156.245 4.47389C155.572 3.14136 154.294 1.61771 153.296 0.958014C152.1 0.167818 150.634 -0.157518 149.303 0.0720463ZM150.854 9.46478C151.114 10.7256 151.172 11.8512 151.128 14.7405C151.072 18.4092 150.595 24.3909 150.057 28.1637C149.74 30.3844 149.289 32.9505 149.215 32.9505C149.153 32.9505 149.127 32.7622 148.884 30.5899C148.634 28.3522 148.55 26.4697 148.548 23.0867C148.547 18.2052 148.766 15.0946 149.356 11.6212C149.589 10.2496 149.891 8.98694 150.159 8.2695L150.338 7.78896L150.529 8.30044C150.634 8.58177 150.78 9.10573 150.854 9.46478ZM51.5205 13.5507C50.1032 14.0752 49.1401 15.4819 49.1401 17.0278C49.1401 18.5209 50.0224 19.7696 51.4044 20.2324C53.2305 20.8438 55.0628 19.9056 55.7682 17.9981C56.409 16.2659 55.6756 14.431 54.035 13.6616C53.3873 13.3578 52.1852 13.3048 51.5205 13.5507ZM74.9241 34.8086C76.1657 34.9647 76.9383 35.3831 77.3073 36.099C77.6313 36.7275 77.5197 38.0886 77.0383 39.3794C76.4909 40.8474 74.3707 43.1532 72.2596 44.5767C71.5505 45.0548 70.8236 45.4663 70.7832 45.4125C70.6545 45.2409 69.7997 43.1361 69.5536 42.385C68.741 39.9042 68.5871 38.5091 68.9687 37.0814C69.0419 36.8079 69.1942 36.5808 69.5147 36.2675C70.3974 35.4047 71.8074 34.9325 74.0991 34.7321C74.1696 34.7259 74.5409 34.7603 74.9241 34.8086ZM125.148 45.7242C125.921 45.9215 127.248 46.6055 128.106 47.2486C128.533 47.5686 128.883 47.8683 128.883 47.9147C128.884 47.9611 128.777 48.2266 128.645 48.5048C128.168 49.5156 126.972 50.7666 126.029 51.2412C124.852 51.8338 123.047 51.9482 122.104 51.4901C121.704 51.2957 120.972 50.4575 120.66 49.836C120.351 49.222 120.471 48.449 121.047 47.3436C121.379 46.7069 121.735 46.3804 122.461 46.0467C123.457 45.5891 124.248 45.4943 125.148 45.7242ZM32.6781 56.4395C32.4417 57.9868 32.2127 58.9617 31.7758 60.2817C30.4714 64.223 27.8655 67.6173 24.3108 70.0049C22.0454 71.5265 19.7871 72.4417 16.7466 73.0702C13.4029 73.7615 11.5953 73.6169 9.78316 72.5132C9.05101 72.0674 7.94451 70.9702 7.49134 70.2407C6.91993 69.321 6.76658 68.7545 6.8107 67.7265C6.92926 64.962 9.0095 62.3591 12.6068 60.4744C15.7402 58.8326 21.2795 57.3192 28.6368 56.0945C29.6305 55.9291 30.9728 55.6876 31.6199 55.5578C32.2669 55.4279 32.807 55.3289 32.8202 55.3376C32.8334 55.3464 32.7695 55.8422 32.6781 56.4395ZM71.2687 70.1925C71.3857 71.1208 71.4205 73.9141 71.3347 75.4826C71.1552 78.7601 70.6906 80.3863 69.3506 82.4268C68.6362 83.5148 67.1518 84.7006 65.8703 85.2072C63.9397 85.9703 60.9892 85.6618 58.909 84.4791C57.5898 83.7292 56.3133 82.567 55.9178 81.7562C55.3962 80.6866 55.318 79.2292 55.7277 78.2115C56.2739 76.8548 57.3732 75.469 58.6037 74.586C60.7623 73.037 63.5159 71.8154 66.8283 70.9375C67.7989 70.6803 69.1223 70.3218 69.7693 70.141C70.4164 69.9601 71.0071 69.8077 71.082 69.8021C71.1836 69.7945 71.231 69.8939 71.2687 70.1925Z" fill="#413877" stroke="#413877" stroke-width="2" mask="url(#path-3-inside-1_548_3323)"/>
</svg>
