<svg width="882" height="283" viewBox="0 0 882 283" fill="none" xmlns="http://www.w3.org/2000/svg">
<path fill-rule="evenodd" clip-rule="evenodd" d="M413.586 11.7292C410.637 12.2695 407.766 13.9415 405.31 16.5512C397.682 24.6535 393.914 40.6463 392.846 69.4502C392.217 86.4149 393.257 103.899 395.69 117.264C397.147 125.266 399.669 134.519 401.802 139.684L402.621 141.666L402.016 142.781C399.41 147.586 394.786 152.864 391.706 154.551C389.507 155.756 387.929 155.763 386.028 154.578C385.092 153.994 379.686 148.187 378.739 146.747C378.404 146.238 378.347 145.298 378.32 139.825C378.278 131.423 377.597 127.11 375.227 120.237C372.511 112.357 369.127 106.991 363.223 101.2C354.86 92.9949 343.017 88.9711 332.146 90.6401C324.281 91.8479 317.179 95.0497 309.887 100.676C305.694 103.911 302.493 107.351 299.928 111.378C299.298 112.367 298.715 113.2 298.632 113.229C298.549 113.258 298.121 112.442 297.681 111.416C294.919 104.976 290.182 99.9802 284.544 97.5605C279.708 95.4852 275.717 94.6632 270.316 94.6302C264.835 94.5968 259.183 95.7186 254.051 97.858C248.111 100.334 243.705 104.699 240.401 111.378C237.8 116.637 236.517 122.525 235.394 134.358C234.926 139.289 234.005 146.395 233.404 149.718C231.072 162.597 226.72 173.043 220.633 180.375C217.506 184.142 211.913 189.099 211.669 188.32C211.612 188.141 211.136 186.21 210.611 184.03C209.41 179.046 207.309 172.239 205.493 167.441C204.722 165.407 204.092 163.623 204.092 163.477C204.092 163.33 204.747 162.83 205.547 162.365C210.609 159.427 215.162 155.803 219.492 151.266C224.875 145.626 227.559 141.906 229.811 136.959C233.431 129.008 234.404 119.502 232.321 112.433C229.408 102.55 221.3 95.698 210.647 94.1167C201.643 92.7801 190.796 95.1869 183.838 100.065C180.176 102.633 176.947 106.199 175.099 109.716C171.589 116.398 170.828 125.926 173.033 135.616C173.735 138.703 175.717 145.184 176.774 147.852C177.204 148.938 177.556 149.914 177.556 150.02C177.556 150.357 171.175 150.229 168.316 149.835C161.379 148.879 157.682 146.789 155.981 142.862C155.245 141.165 154.388 137.501 154.068 134.692C153.647 130.998 153.381 123.574 153.223 111.194C153.141 104.725 152.97 99.1121 152.839 98.5639C151.953 94.8599 148.665 91.9108 144.629 91.1988C140.62 90.4918 136.637 92.71 134.768 96.6917C134.364 97.5516 133.732 99.7738 133.236 102.074C130.996 112.477 130.385 114.819 127.593 123.705C124.316 134.136 122.112 137.972 116.71 142.644C114.101 144.9 111.45 146.613 108.597 147.886C106.885 148.65 106.456 148.762 106.366 148.47C106.027 147.368 104.108 143.764 102.923 142.003C99.1477 136.392 90.1799 128.093 84.0478 124.536C79.0619 121.643 77.0826 120.9 61.2872 115.988C48.2933 111.947 43.9444 110.53 41.8509 109.659C39.0017 108.472 34.5975 106.131 33.1613 105.039C30.4406 102.972 27.1055 98.8279 25.2436 95.201C21.2651 87.451 21.5097 78.1454 25.8525 72.0443C29.6443 66.7172 36.1405 62.0929 43.3797 59.5677C48.9092 57.6388 53.4768 56.8205 58.7268 56.8183C68.1475 56.814 75.7547 59.7438 81.1754 65.4634C84.1093 68.5594 85.204 70.576 86.7484 75.7297C87.2731 77.48 87.9877 79.4706 88.3366 80.1531C89.5403 82.5066 91.9986 84.2963 94.7762 84.8408C98.8146 85.6328 103.088 83.2169 104.909 79.1121C105.449 77.8947 105.512 77.4594 105.501 75.0244C105.489 72.3981 105.444 72.16 104.255 68.4593C102.219 62.1204 100.245 58.3721 96.4631 53.664C89.824 45.3985 80.0907 39.7919 68.8016 37.7304C53.5115 34.9382 35.9427 38.897 23.0932 48.0299C18.1012 51.5781 14.0885 55.5464 10.8523 60.1357C6.411 66.4338 4.01462 73.7889 3.73855 81.9698C3.37403 92.7762 6.51085 102.693 13.1616 111.759C17.8584 118.163 22.347 121.987 29.3513 125.555C35.5269 128.701 37.3363 129.347 57.0974 135.465C62.2183 137.051 67.4033 138.688 68.6195 139.103C71.9789 140.249 76.0787 142.502 78.8854 144.744C81.5977 146.91 85.8672 151.126 87.3055 153.058L88.2242 154.291L84.9975 154.984C83.2231 155.365 78.4716 156.283 74.4388 157.025C42.0578 162.98 25.5925 169.407 13.6823 180.742C4.35958 189.614 -1.04513 203.069 0.169241 214.384C0.849631 220.723 2.91291 226.002 6.9203 231.657C8.48476 233.865 12.1742 237.738 14.3839 239.493C19.1941 243.313 25.0117 245.93 31.027 246.979C41.7023 248.842 59.7661 244.67 72.2275 237.463C75.1066 235.798 81.0539 231.488 83.6279 229.2C89.0929 224.344 94.3724 218.047 98.2368 211.777C104.96 200.868 109.195 186.442 109.742 172.589L109.891 168.827L113.259 167.417C117.265 165.74 121.068 163.723 123.786 161.835C128.159 158.797 133.325 153.833 136.244 149.866C137.547 148.096 137.65 148.01 137.849 148.536C140.749 156.178 145.362 161.835 151.374 165.12C155.651 167.456 160.055 168.807 166.267 169.687C169.924 170.205 178.213 170.264 182.212 169.801C183.684 169.631 185.139 169.474 185.445 169.452C185.951 169.417 186.135 169.758 187.493 173.253C189.627 178.743 191.353 184.353 192.919 190.883L194.282 196.567L193.71 196.798C193.2 197.005 186.601 198.918 177.789 201.416C167.28 204.393 155.568 210.601 148.576 216.898C142.271 222.577 137.448 230.595 135.636 238.409C135.157 240.477 135.09 241.362 135.087 245.717C135.083 250.893 135.202 251.896 136.279 255.75C137.851 261.38 141.003 266.351 145.978 271.046C154.398 278.994 164.315 282.999 175.578 283C181.543 283.001 184.959 282.355 189.544 280.362C194.049 278.403 197.047 276.393 201.272 272.502C204.917 269.144 207.414 265.742 210.242 260.281C213.841 253.327 215.577 246.39 216.212 236.427C216.509 231.771 216.374 218.144 215.993 214.378C215.876 213.22 215.711 211.547 215.625 210.662L215.469 209.051L217.618 207.937C225.636 203.777 234.345 195.254 240.182 185.855C244.42 179.03 248.08 169.83 250.373 160.234C251.979 153.516 252.863 147.679 254.143 135.349C254.995 127.139 255.679 123.582 256.936 120.828C258.257 117.933 259.22 117.009 261.898 116.064C267.007 114.261 271.936 114.064 276.053 115.498C277.945 116.157 278.434 116.441 279.168 117.305C282.574 121.317 284.625 133.253 284.632 149.098C284.635 155.614 285.121 163.8 285.674 166.621C286.435 170.502 288.551 173.586 291.534 175.154C293.008 175.93 293.565 176.085 295.2 176.176C297.58 176.309 299.192 175.857 301.036 174.537C301.763 174.017 302.718 173.108 303.156 172.519C304.533 170.667 304.727 169.593 304.795 163.467C304.887 155.239 305.329 151.725 307.323 143.4C308.853 137.009 310.102 133.357 312.517 128.202C315.644 121.531 317.44 119.225 322.056 115.956C328.443 111.433 334.645 109.492 339.728 110.425C342.415 110.919 345.286 112.022 347.496 113.41C351.029 115.63 354.525 119.794 356.42 124.041C357.442 126.33 358.312 128.857 358.141 129.039C358.09 129.093 357.015 128.685 355.751 128.131C352.803 126.839 349.886 126.059 346.64 125.696C338.494 124.784 328.92 128.503 323.067 134.853C317.734 140.639 314.278 150.836 315.108 158.333C315.473 161.631 315.913 163.316 317.121 166.043C318.601 169.381 320.475 172.213 323.235 175.278C325.803 178.131 327.789 179.699 330.532 181.041C337.885 184.639 347.778 184.489 356.012 180.653C360.739 178.452 365.809 174.118 369.365 169.239C370.933 167.089 370.938 167.084 371.37 167.598C372.09 168.453 375.435 171.136 376.936 172.062C381.238 174.717 386.899 175.968 391.473 175.273C395.871 174.606 400.827 172.377 404.624 169.359C406.732 167.684 411.644 162.673 413.172 160.64L413.994 159.547L416.012 161.317C421.306 165.961 427.062 169.193 434.349 171.614C445.73 175.396 454.026 176.31 476.667 176.282C491.786 176.262 499.218 175.986 501.438 175.36C504.52 174.492 507.244 172.286 508.435 169.695C510.699 164.77 508.923 158.906 504.511 156.736L503.087 156.035L495.638 156.159C491.541 156.227 482.009 156.277 474.456 156.269C459.877 156.254 455.011 155.992 448.967 154.897C441.465 153.538 434.922 151.08 430.462 147.945C428.43 146.517 425.188 143.342 424.18 141.794L423.544 140.818L424.879 137.03C427.726 128.953 429.998 121.261 431.153 115.782C431.978 111.867 433.451 102.947 434.18 97.446C435.769 85.455 437.547 61.7738 437.556 52.4801C437.568 40.1801 436.099 31.5607 432.816 24.6644C430.952 20.7486 427.41 16.2712 424.645 14.3327C421.332 12.0106 417.271 11.0546 413.586 11.7292ZM417.881 39.3306C418.6 43.0355 418.762 46.3433 418.641 54.8336C418.486 65.6145 417.163 83.1924 415.673 94.279C414.796 100.805 413.546 108.345 413.342 108.345C413.17 108.345 413.097 107.792 412.424 101.409C411.732 94.8329 411.498 89.3011 411.495 79.3598C411.49 65.015 412.096 55.8744 413.731 45.6673C414.377 41.6368 415.215 37.9264 415.956 35.8181L416.453 34.406L416.981 35.909C417.271 36.7357 417.676 38.2754 417.881 39.3306ZM142.717 51.3375C138.791 52.8787 136.123 57.0125 136.123 61.555C136.123 65.9428 138.567 69.6123 142.396 70.9721C147.454 72.7687 152.53 70.0119 154.484 64.4065C156.259 59.3162 154.227 53.9242 149.683 51.6633C147.889 50.7707 144.559 50.6149 142.717 51.3375ZM207.548 113.806C210.987 114.264 213.127 115.494 214.149 117.598C215.047 119.445 214.738 123.444 213.404 127.237C211.888 131.551 206.015 138.327 200.167 142.51C198.202 143.915 196.189 145.124 196.077 144.966C195.72 144.462 193.352 138.277 192.671 136.07C190.42 128.78 189.994 124.68 191.051 120.485C191.253 119.681 191.675 119.014 192.563 118.093C195.008 115.557 198.914 114.17 205.262 113.581C205.458 113.563 206.486 113.664 207.548 113.806ZM346.674 145.882C348.813 146.462 352.49 148.472 354.867 150.362C356.05 151.302 357.019 152.183 357.02 152.319C357.021 152.455 356.725 153.236 356.361 154.053C355.039 157.023 351.726 160.7 349.115 162.094C345.853 163.836 340.854 164.172 338.241 162.826C337.133 162.254 335.105 159.791 334.24 157.965C333.385 156.161 333.718 153.889 335.313 150.641C336.232 148.77 337.218 147.81 339.231 146.83C341.99 145.485 344.18 145.207 346.674 145.882ZM90.5219 177.37C89.8669 181.917 89.2326 184.782 88.0224 188.661C84.4091 200.243 77.1904 210.217 67.3435 217.233C61.0682 221.705 54.8125 224.394 46.3899 226.241C37.1275 228.272 32.1201 227.847 27.1004 224.604C25.0723 223.294 22.0071 220.07 20.7518 217.926C19.1689 215.223 18.7441 213.559 18.8663 210.538C19.1948 202.414 24.9573 194.765 34.9222 189.227C43.602 184.402 58.9465 179.955 79.327 176.356C82.0795 175.87 85.798 175.16 87.5904 174.779C89.3827 174.397 90.8789 174.106 90.9155 174.132C90.952 174.158 90.7749 175.615 90.5219 177.37ZM197.422 217.784C197.746 220.512 197.842 228.721 197.604 233.33C197.107 242.961 195.82 247.74 192.109 253.736C190.13 256.933 186.018 260.418 182.468 261.906C177.12 264.149 168.946 263.242 163.184 259.767C159.53 257.563 155.994 254.148 154.898 251.765C153.453 248.622 153.237 244.339 154.372 241.349C155.885 237.362 158.93 233.29 162.338 230.695C168.318 226.143 175.946 222.554 185.121 219.974C187.81 219.218 191.476 218.164 193.268 217.633C195.061 217.102 196.697 216.654 196.905 216.637C197.186 216.615 197.317 216.907 197.422 217.784Z" fill="black"/>
<path d="M672.251 94.0317C674.924 94.0317 676.841 94.6487 678.003 95.8827C679.282 97.1167 679.921 98.7209 679.921 100.695C679.921 103.904 678.991 106.742 677.132 109.21C675.389 111.678 672.599 112.974 668.764 113.097C659.583 113.221 651.332 112.48 644.01 110.876C635.875 129.263 626.054 144.564 614.549 156.781C603.159 168.874 591.886 174.921 580.729 174.921C570.502 174.921 562.832 169.183 557.718 157.707C552.605 146.107 549.699 130.62 549.002 111.246C542.029 132.718 534.126 148.698 525.294 159.187C516.577 169.677 507.28 174.921 497.402 174.921C486.245 174.921 477.819 167.579 472.124 152.894C466.43 138.086 463.582 118.218 463.582 93.2913C463.582 75.1513 465.093 55.222 468.115 33.5034C468.928 27.3334 470.381 23.076 472.473 20.7314C474.681 18.2634 478.109 17.0294 482.758 17.0294C486.245 17.0294 488.918 17.8315 490.777 19.4357C492.753 21.0399 493.741 24.0015 493.741 28.3206C493.741 29.1844 493.624 30.8503 493.392 33.3183C489.906 58.6156 488.162 80.1491 488.162 97.9188C488.162 114.455 489.499 127.227 492.172 136.235C494.845 145.243 498.448 149.747 502.98 149.747C507.048 149.747 511.929 145.243 517.623 136.235C523.434 127.103 529.187 113.652 534.882 95.8827C540.576 77.9895 545.399 56.7028 549.351 32.0226C550.281 26.3462 551.966 22.459 554.406 20.3612C556.963 18.14 560.391 17.0294 564.691 17.0294C568.294 17.0294 570.909 17.8932 572.536 19.6208C574.279 21.225 575.151 23.693 575.151 27.0249C575.151 28.9993 575.035 30.5418 574.802 31.6524C571.548 51.7668 569.921 71.8812 569.921 91.9956C569.921 105.693 570.328 116.614 571.142 124.759C572.071 132.903 573.756 139.135 576.197 143.454C578.754 147.649 582.415 149.747 587.18 149.747C592.758 149.747 598.976 145.305 605.832 136.42C612.689 127.412 618.965 116.244 624.66 102.917C617.57 98.2273 612.224 92.1807 608.622 84.7766C605.019 77.2491 603.218 68.611 603.218 58.8624C603.218 49.1137 604.612 40.9075 607.401 34.2438C610.307 27.4568 614.2 22.3973 619.081 19.0655C624.079 15.7337 629.599 14.0677 635.642 14.0677C643.08 14.0677 648.949 16.906 653.249 22.5824C657.665 28.2589 659.874 36.0331 659.874 45.9052C659.874 59.8496 657.026 75.3364 651.332 92.3658C657.259 93.4764 664.232 94.0317 672.251 94.0317ZM620.825 57.5666C620.825 69.66 624.485 78.6065 631.807 84.4064C636.34 70.5855 638.606 59.1709 638.606 50.1626C638.606 44.9797 637.967 41.216 636.688 38.8714C635.41 36.4033 633.667 35.1693 631.458 35.1693C628.321 35.1693 625.764 37.1437 623.788 41.0926C621.812 44.918 620.825 50.4094 620.825 57.5666Z" fill="black"/>
<path d="M740.725 132.718C742.236 132.718 743.399 133.458 744.212 134.939C745.142 136.42 745.607 138.456 745.607 141.048C745.607 145.984 744.503 149.809 742.294 152.524C737.994 158.077 731.893 163.198 723.99 167.887C716.204 172.577 707.836 174.921 698.887 174.921C686.684 174.921 677.213 171.404 670.472 164.37C663.731 157.336 660.361 147.711 660.361 135.494C660.361 126.98 662.046 119.082 665.417 111.801C668.787 104.397 673.436 98.5358 679.363 94.2168C685.406 89.8977 692.205 87.7382 699.759 87.7382C706.499 87.7382 711.904 89.8977 715.971 94.2168C720.039 98.4124 722.073 104.151 722.073 111.431C722.073 119.946 719.167 127.288 713.356 133.458C707.662 139.505 697.957 144.318 684.244 147.896C687.149 153.573 692.67 156.411 700.805 156.411C706.035 156.411 711.962 154.498 718.586 150.673C725.327 146.724 731.138 141.603 736.019 135.309C737.413 133.582 738.982 132.718 740.725 132.718ZM696.795 105.878C692.495 105.878 688.834 108.531 685.813 113.838C682.907 119.144 681.455 125.561 681.455 133.088V133.458C688.311 131.731 693.716 129.139 697.667 125.684C701.618 122.229 703.594 118.218 703.594 113.652C703.594 111.308 702.955 109.457 701.676 108.099C700.514 106.619 698.887 105.878 696.795 105.878Z" fill="black"/>
<path d="M809.162 132.718C810.673 132.718 811.835 133.458 812.649 134.939C813.578 136.42 814.043 138.456 814.043 141.048C814.043 145.984 812.939 149.809 810.731 152.524C806.431 158.077 800.33 163.198 792.427 167.887C784.64 172.577 776.273 174.921 767.324 174.921C755.121 174.921 745.649 171.404 738.909 164.37C732.168 157.336 728.798 147.711 728.798 135.494C728.798 126.98 730.483 119.082 733.853 111.801C737.223 104.397 741.872 98.5358 747.799 94.2168C753.843 89.8977 760.641 87.7382 768.195 87.7382C774.936 87.7382 780.34 89.8977 784.408 94.2168C788.475 98.4124 790.509 104.151 790.509 111.431C790.509 119.946 787.604 127.288 781.793 133.458C776.098 139.505 766.394 144.318 752.68 147.896C755.586 153.573 761.106 156.411 769.241 156.411C774.471 156.411 780.398 154.498 787.023 150.673C793.763 146.724 799.574 141.603 804.455 135.309C805.85 133.582 807.419 132.718 809.162 132.718ZM765.232 105.878C760.932 105.878 757.271 108.531 754.249 113.838C751.344 119.144 749.891 125.561 749.891 133.088V133.458C756.748 131.731 762.152 129.139 766.104 125.684C770.055 122.229 772.031 118.218 772.031 113.652C772.031 111.308 771.391 109.457 770.113 108.099C768.951 106.619 767.324 105.878 765.232 105.878Z" fill="black"/>
<path d="M873.938 154.745C878.703 155.732 881.085 158.509 881.085 163.075C881.085 166.16 879.749 168.936 877.076 171.404C874.519 173.749 870.8 174.921 865.919 174.921C857.551 174.921 850.694 172.206 845.348 166.777C840.119 161.224 837.504 154.005 837.504 145.12C837.504 140.307 839.828 136.852 844.477 134.754C849.59 132.409 853.251 129.941 855.459 127.35C857.667 124.635 858.772 121.365 858.772 117.54C858.772 115.318 858.307 113.652 857.377 112.542C856.563 111.431 855.517 110.876 854.239 110.876C851.101 110.876 847.615 113.282 843.779 118.095C840.061 122.908 836.574 129.139 833.32 136.79C830.066 144.318 827.509 152.092 825.65 160.113C824.371 165.913 822.86 169.862 821.117 171.96C819.49 173.934 816.875 174.921 813.272 174.921C809.67 174.921 806.997 173.564 805.253 170.849C803.626 168.011 802.522 163.692 801.941 157.892C801.36 152.092 801.07 143.577 801.07 132.348C801.07 113.344 802.871 93.5381 806.474 72.9301C810.193 52.3221 815.597 35.0459 822.686 21.1016C829.891 7.03387 838.492 0 848.486 0C853.832 0 858.132 2.46802 861.386 7.40407C864.757 12.2167 866.442 18.5102 866.442 26.2844C866.442 38.748 863.013 51.7051 856.157 65.1558C849.3 78.4831 838.143 94.0934 822.686 111.987C822.337 118.403 822.163 125.005 822.163 131.792C827.741 116.367 834.133 105.199 841.339 98.289C848.544 91.2552 855.285 87.7382 861.561 87.7382C867.372 87.7382 872.02 89.8361 875.507 94.0317C879.11 98.2273 880.911 103.41 880.911 109.58C880.911 116.367 879.284 122.599 876.03 128.276C872.776 133.952 867.197 139.011 859.295 143.454C859.992 147.156 861.386 149.747 863.478 151.228C865.686 152.586 869.173 153.758 873.938 154.745ZM844.825 18.3251C842.734 18.3251 840.409 21.5335 837.852 27.9504C835.296 34.2438 832.797 42.8202 830.356 53.6795C828.032 64.4154 826.114 76.1385 824.604 88.8488C831.809 79.8406 837.736 70.0302 842.385 59.4177C847.15 48.8052 849.532 39.1799 849.532 30.5418C849.532 26.593 849.125 23.5696 848.312 21.4718C847.498 19.374 846.336 18.3251 844.825 18.3251Z" fill="black"/>
<path fill-rule="evenodd" clip-rule="evenodd" d="M413.586 11.073C410.637 11.5831 407.766 13.1615 405.31 15.6252C397.682 23.2743 393.914 38.3724 392.846 65.5649C392.217 81.5805 393.257 98.0864 395.69 110.704C397.147 118.258 399.669 126.994 401.802 131.87L402.621 133.741L402.016 134.793C399.41 139.329 394.786 144.312 391.706 145.905C389.507 147.042 387.929 147.049 386.028 145.93C385.092 145.379 379.686 139.897 378.739 138.538C378.404 138.057 378.347 137.169 378.32 132.002C378.278 124.07 377.597 119.999 375.227 113.51C372.511 106.071 369.127 101.006 363.223 95.538C354.86 87.7924 343.017 83.9937 332.146 85.5694C324.281 86.7095 317.179 89.7322 309.887 95.0441C305.694 98.0981 302.493 101.346 299.928 105.147C299.298 106.081 298.715 106.867 298.632 106.895C298.549 106.922 298.121 106.152 297.681 105.183C294.919 99.1035 290.182 94.3869 284.544 92.1026C279.708 90.1434 275.717 89.3673 270.316 89.3362C264.835 89.3047 259.183 90.3637 254.051 92.3835C248.111 94.7209 243.705 98.8416 240.401 105.147C237.8 110.112 236.517 115.67 235.394 126.841C234.926 131.497 234.005 138.205 233.404 141.342C231.072 153.5 226.72 163.362 220.633 170.284C217.506 173.841 211.913 178.52 211.669 177.785C211.612 177.615 211.136 175.793 210.611 173.734C209.41 169.029 207.309 162.603 205.493 158.074C204.722 156.154 204.092 154.469 204.092 154.331C204.092 154.193 204.747 153.721 205.547 153.282C210.609 150.508 215.162 147.087 219.492 142.804C224.875 137.479 227.559 133.967 229.811 129.297C233.431 121.79 234.404 112.816 232.321 106.143C229.408 96.8134 221.3 90.3443 210.647 88.8514C201.643 87.5896 190.796 89.8618 183.838 94.4673C180.176 96.891 176.947 100.257 175.099 103.578C171.589 109.886 170.828 118.881 173.033 128.029C173.735 130.943 175.717 137.062 176.774 139.581C177.204 140.606 177.556 141.527 177.556 141.627C177.556 141.945 171.175 141.824 168.316 141.452C161.379 140.55 157.682 138.577 155.981 134.87C155.245 133.268 154.388 129.808 154.068 127.157C153.647 123.67 153.381 116.661 153.223 104.974C153.141 98.8661 152.97 93.5674 152.839 93.0498C151.953 89.553 148.665 86.7689 144.629 86.0968C140.62 85.4293 136.637 87.5234 134.768 91.2824C134.364 92.0942 133.732 94.1921 133.236 96.3636C130.996 106.184 130.385 108.395 127.593 116.785C124.316 126.632 122.112 130.253 116.71 134.664C114.101 136.794 111.45 138.411 108.597 139.613C106.885 140.334 106.456 140.44 106.366 140.164C106.027 139.124 104.108 135.722 102.923 134.059C99.1477 128.762 90.1799 120.927 84.0478 117.569C79.0619 114.838 77.0826 114.136 61.2872 109.499C48.2933 105.684 43.9444 104.347 41.8509 103.524C39.0017 102.404 34.5975 100.193 33.1613 99.1629C30.4406 97.2117 27.1055 93.2991 25.2436 89.8751C21.2651 82.5586 21.5097 73.7736 25.8525 68.0139C29.6443 62.9847 36.1405 58.6191 43.3797 56.2352C48.9092 54.4142 53.4768 53.6417 58.7268 53.6396C68.1475 53.6356 75.7547 56.4015 81.1754 61.8011C84.1093 64.7239 85.204 66.6277 86.7484 71.4931C87.2731 73.1454 87.9877 75.0247 88.3366 75.669C89.5403 77.8909 91.9986 79.5804 94.7762 80.0945C98.8146 80.8422 103.088 78.5614 104.909 74.6862C105.449 73.5369 105.512 73.126 105.501 70.8272C105.489 68.3478 105.444 68.1231 104.255 64.6294C102.219 58.6451 100.245 55.1065 96.4631 50.6618C89.824 42.8587 80.0907 37.5657 68.8016 35.6196C53.5115 32.9836 35.9427 36.721 23.0932 45.3429C18.1012 48.6926 14.0885 52.4389 10.8523 56.7715C6.411 62.7172 4.01462 69.6609 3.73855 77.384C3.37403 87.5859 6.51085 96.9479 13.1616 105.507C17.8584 111.552 22.347 115.163 29.3513 118.531C35.5269 121.501 37.3363 122.111 57.0974 127.887C62.2183 129.384 67.4033 130.929 68.6195 131.321C71.9789 132.403 76.0787 134.53 78.8854 136.646C81.5977 138.691 85.8672 142.671 87.3055 144.495L88.2242 145.66L84.9975 146.314C83.2231 146.673 78.4716 147.54 74.4388 148.24C42.0578 153.862 25.5925 159.93 13.6823 170.63C4.35958 179.006 -1.04513 191.709 0.169241 202.391C0.849631 208.375 2.91291 213.358 6.9203 218.697C8.48476 220.782 12.1742 224.438 14.3839 226.095C19.1941 229.701 25.0117 232.171 31.027 233.162C41.7023 234.921 59.7661 230.982 72.2275 224.179C75.1066 222.607 81.0539 218.537 83.6279 216.378C89.0929 211.793 94.3724 205.849 98.2368 199.929C104.96 189.631 109.195 176.011 109.742 162.933L109.891 159.382L113.259 158.051C117.265 156.468 121.068 154.564 123.786 152.781C128.159 149.913 133.325 145.227 136.244 141.482C137.547 139.811 137.65 139.73 137.849 140.227C140.749 147.441 145.362 152.781 151.374 155.882C155.651 158.088 160.055 159.363 166.267 160.194C169.924 160.683 178.213 160.739 182.212 160.302C183.684 160.141 185.139 159.993 185.445 159.972C185.951 159.939 186.135 160.261 187.493 163.561C189.627 168.744 191.353 174.039 192.919 180.204L194.282 185.57L193.71 185.788C193.2 185.983 186.601 187.79 177.789 190.148C167.28 192.959 155.568 198.819 148.576 204.764C142.271 210.125 137.448 217.694 135.636 225.071C135.157 227.024 135.09 227.859 135.087 231.97C135.083 236.857 135.202 237.804 136.279 241.443C137.851 246.757 141.003 251.45 145.978 255.882C154.398 263.386 164.315 267.166 175.578 267.168C181.543 267.169 184.959 266.559 189.544 264.677C194.049 262.828 197.047 260.93 201.272 257.257C204.917 254.087 207.414 250.876 210.242 245.72C213.841 239.155 215.577 232.606 216.212 223.2C216.509 218.805 216.374 205.94 215.993 202.385C215.876 201.291 215.711 199.713 215.625 198.876L215.469 197.356L217.618 196.304C225.636 192.376 234.345 184.331 240.182 175.458C244.42 169.015 248.08 160.329 250.373 151.27C251.979 144.927 252.863 139.417 254.143 127.777C254.995 120.026 255.679 116.668 256.936 114.069C258.257 111.336 259.22 110.463 261.898 109.571C267.007 107.869 271.936 107.683 276.053 109.036C277.945 109.659 278.434 109.927 279.168 110.743C282.574 114.53 284.625 125.798 284.632 140.757C284.635 146.909 285.121 154.636 285.674 157.299C286.435 160.964 288.551 163.874 291.534 165.355C293.008 166.088 293.565 166.234 295.2 166.32C297.58 166.446 299.192 166.018 301.036 164.773C301.763 164.281 302.718 163.424 303.156 162.867C304.533 161.119 304.727 160.106 304.795 154.322C304.887 146.554 305.329 143.237 307.323 135.378C308.853 129.344 310.102 125.896 312.517 121.03C315.644 114.732 317.44 112.555 322.056 109.469C328.443 105.199 334.645 103.366 339.728 104.247C342.415 104.713 345.286 105.755 347.496 107.066C351.029 109.161 354.525 113.093 356.42 117.102C357.442 119.263 358.312 121.648 358.141 121.82C358.09 121.871 357.015 121.485 355.751 120.963C352.803 119.743 349.886 119.007 346.64 118.664C338.494 117.803 328.92 121.314 323.067 127.309C317.734 132.771 314.278 142.398 315.108 149.475C315.473 152.589 315.913 154.179 317.121 156.754C318.601 159.905 320.475 162.578 323.235 165.472C325.803 168.165 327.789 169.646 330.532 170.913C337.885 174.31 347.778 174.168 356.012 170.547C360.739 168.468 365.809 164.377 369.365 159.771C370.933 157.741 370.938 157.737 371.37 158.222C372.09 159.029 375.435 161.562 376.936 162.437C381.238 164.943 386.899 166.123 391.473 165.468C395.871 164.837 400.827 162.734 404.624 159.884C406.732 158.303 411.644 153.573 413.172 151.653L413.994 150.621L416.012 152.293C421.306 156.677 427.062 159.728 434.349 162.013C445.73 165.583 454.026 166.447 476.667 166.42C491.786 166.402 499.218 166.141 501.438 165.55C504.52 164.73 507.244 162.648 508.435 160.202C510.699 155.552 508.923 150.016 504.511 147.967L503.087 147.306L495.638 147.423C491.541 147.487 482.009 147.534 474.456 147.527C459.877 147.512 455.011 147.265 448.967 146.232C441.465 144.948 434.922 142.628 430.462 139.668C428.43 138.32 425.188 135.323 424.18 133.861L423.544 132.94L424.879 129.364C427.726 121.739 429.998 114.477 431.153 109.305C431.978 105.609 433.451 97.1878 434.18 91.9945C435.769 80.6743 437.547 58.3179 437.556 49.5441C437.568 37.9322 436.099 29.7951 432.816 23.2846C430.952 19.5879 427.41 15.3609 424.645 13.5308C421.332 11.3387 417.271 10.4361 413.586 11.073ZM417.881 37.1303C418.6 40.6279 418.762 43.7507 418.641 51.766C418.486 61.9437 417.163 78.5382 415.673 89.0046C414.796 95.1652 413.546 102.284 413.342 102.284C413.17 102.284 413.097 101.762 412.424 95.7354C411.732 89.5275 411.498 84.3052 411.495 74.9201C411.49 61.3778 412.096 52.7485 413.731 43.1124C414.377 39.3074 415.215 35.8046 415.956 33.8143L416.453 32.4812L416.981 33.9001C417.271 34.6806 417.676 36.1342 417.881 37.1303ZM142.717 48.4655C138.791 49.9204 136.123 53.823 136.123 58.1114C136.123 62.2536 138.567 65.7179 142.396 67.0016C147.454 68.6977 152.53 66.0951 154.484 60.8033C156.259 55.9978 154.227 50.9074 149.683 48.773C147.889 47.9304 144.559 47.7833 142.717 48.4655ZM207.548 107.439C210.987 107.872 213.127 109.033 214.149 111.019C215.047 112.762 214.738 116.538 213.404 120.119C211.888 124.192 206.015 130.588 200.167 134.538C198.202 135.864 196.189 137.005 196.077 136.856C195.72 136.38 193.352 130.541 192.671 128.457C190.42 121.575 189.994 117.705 191.051 113.744C191.253 112.985 191.675 112.355 192.563 111.486C195.008 109.093 198.914 107.783 205.262 107.227C205.458 107.21 206.486 107.305 207.548 107.439ZM346.674 137.721C348.813 138.268 352.49 140.166 354.867 141.95C356.05 142.837 357.019 143.669 357.02 143.798C357.021 143.926 356.725 144.663 356.361 145.435C355.039 148.239 351.726 151.709 349.115 153.026C345.853 154.67 340.854 154.987 338.241 153.717C337.133 153.177 335.105 150.852 334.24 149.128C333.385 147.425 333.718 145.28 335.313 142.213C336.232 140.447 337.218 139.541 339.231 138.615C341.99 137.346 344.18 137.083 346.674 137.721ZM90.5219 167.447C89.8669 171.74 89.2326 174.444 88.0224 178.106C84.4091 189.04 77.1904 198.456 67.3435 205.08C61.0682 209.301 54.8125 211.84 46.3899 213.584C37.1275 215.502 32.1201 215.1 27.1004 212.039C25.0723 210.802 22.0071 207.758 20.7518 205.734C19.1689 203.183 18.7441 201.611 18.8663 198.76C19.1948 191.09 24.9573 183.869 34.9222 178.641C43.602 174.086 58.9465 169.888 79.327 166.49C82.0795 166.031 85.798 165.361 87.5904 165.001C89.3827 164.641 90.8789 164.366 90.9155 164.39C90.952 164.415 90.7749 165.79 90.5219 167.447ZM197.422 205.601C197.746 208.176 197.842 215.925 197.604 220.276C197.107 229.369 195.82 233.88 192.109 239.541C190.13 242.559 186.018 245.849 182.468 247.254C177.12 249.371 168.946 248.515 163.184 245.235C159.53 243.154 155.994 239.93 154.898 237.681C153.453 234.713 153.237 230.67 154.372 227.847C155.885 224.083 158.93 220.239 162.338 217.789C168.318 213.492 175.946 210.103 185.121 207.667C187.81 206.954 191.476 205.959 193.268 205.458C195.061 204.956 196.697 204.533 196.905 204.518C197.186 204.497 197.317 204.772 197.422 205.601Z" fill="#574B9F"/>
<path d="M672.251 88.7712C674.924 88.7712 676.841 89.3537 678.003 90.5186C679.282 91.6836 679.921 93.1981 679.921 95.062C679.921 98.091 678.991 100.77 677.132 103.1C675.389 105.43 672.599 106.654 668.764 106.77C659.583 106.887 651.332 106.188 644.01 104.673C635.875 122.031 626.054 136.477 614.549 148.01C603.159 159.427 591.886 165.135 580.729 165.135C570.502 165.135 562.832 159.718 557.718 148.884C552.605 137.933 549.699 123.313 549.002 105.023C542.029 125.293 534.126 140.38 525.294 150.282C516.577 160.184 507.28 165.135 497.402 165.135C486.245 165.135 477.819 158.204 472.124 144.341C466.43 130.361 463.582 111.605 463.582 88.0722C463.582 70.947 465.093 52.1327 468.115 31.6291C468.928 25.8042 470.381 21.7851 472.473 19.5716C474.681 17.2416 478.109 16.0767 482.758 16.0767C486.245 16.0767 488.918 16.8339 490.777 18.3484C492.753 19.8628 493.741 22.6588 493.741 26.7362C493.741 27.5517 493.624 29.1244 493.392 31.4543C489.906 55.3364 488.162 75.6652 488.162 92.4408C488.162 108.052 489.499 120.109 492.172 128.613C494.845 137.118 498.448 141.37 502.98 141.37C507.048 141.37 511.929 137.118 517.623 128.613C523.434 119.993 529.187 107.294 534.882 90.5186C540.576 73.6265 545.399 53.5306 549.351 30.2311C550.281 24.8722 551.966 21.2026 554.406 19.2221C556.963 17.1251 560.391 16.0767 564.691 16.0767C568.294 16.0767 570.909 16.8922 572.536 18.5231C574.279 20.0376 575.151 22.3675 575.151 25.513C575.151 27.3769 575.035 28.8332 574.802 29.8816C571.548 48.8707 569.921 67.8599 569.921 86.849C569.921 99.7802 570.328 110.09 571.142 117.779C572.071 125.468 573.756 131.351 576.197 135.428C578.754 139.389 582.415 141.37 587.18 141.37C592.758 141.37 598.976 137.176 605.832 128.788C612.689 120.284 618.965 109.741 624.66 97.159C617.57 92.7321 612.224 87.0237 608.622 80.0338C605.019 72.9275 603.218 64.7727 603.218 55.5694C603.218 46.366 604.612 38.619 607.401 32.3281C610.307 25.9207 614.2 21.1443 619.081 17.9989C624.079 14.8534 629.599 13.2807 635.642 13.2807C643.08 13.2807 648.949 15.9602 653.249 21.3191C657.665 26.678 659.874 34.0173 659.874 43.3371C659.874 56.5013 657.026 71.1218 651.332 87.1985C657.259 88.2469 664.232 88.7712 672.251 88.7712ZM620.825 54.3461C620.825 65.7629 624.485 74.209 631.807 79.6844C636.34 66.6366 638.606 55.8606 638.606 47.3563C638.606 42.4634 637.967 38.9102 636.688 36.6967C635.41 34.3668 633.667 33.2018 631.458 33.2018C628.321 33.2018 625.764 35.0658 623.788 38.7937C621.812 42.4051 620.825 47.5893 620.825 54.3461Z" fill="#574B9F"/>
<path d="M740.725 125.293C742.236 125.293 743.399 125.992 744.212 127.39C745.142 128.788 745.607 130.71 745.607 133.157C745.607 137.817 744.503 141.428 742.294 143.991C737.994 149.233 731.893 154.068 723.99 158.495C716.204 162.922 707.836 165.135 698.887 165.135C686.684 165.135 677.213 161.815 670.472 155.175C663.731 148.534 660.361 139.448 660.361 127.914C660.361 119.876 662.046 112.42 665.417 105.547C668.787 98.557 673.436 93.0233 679.363 88.9459C685.406 84.8685 692.205 82.8298 699.759 82.8298C706.499 82.8298 711.904 84.8685 715.971 88.9459C720.039 92.9068 722.073 98.324 722.073 105.197C722.073 113.236 719.167 120.167 713.356 125.992C707.662 131.701 697.957 136.244 684.244 139.622C687.149 144.981 692.67 147.661 700.805 147.661C706.035 147.661 711.962 145.855 718.586 142.244C725.327 138.516 731.138 133.681 736.019 127.74C737.413 126.109 738.982 125.293 740.725 125.293ZM696.795 99.9549C692.495 99.9549 688.834 102.46 685.813 107.469C682.907 112.478 681.455 118.536 681.455 125.643V125.992C688.311 124.361 693.716 121.915 697.667 118.653C701.618 115.391 703.594 111.605 703.594 107.294C703.594 105.081 702.955 103.333 701.676 102.052C700.514 100.654 698.887 99.9549 696.795 99.9549Z" fill="#574B9F"/>
<path d="M809.162 125.293C810.673 125.293 811.835 125.992 812.649 127.39C813.578 128.788 814.043 130.71 814.043 133.157C814.043 137.817 812.939 141.428 810.731 143.991C806.431 149.233 800.33 154.068 792.427 158.495C784.64 162.922 776.273 165.135 767.324 165.135C755.121 165.135 745.649 161.815 738.909 155.175C732.168 148.534 728.798 139.448 728.798 127.914C728.798 119.876 730.483 112.42 733.853 105.547C737.223 98.557 741.872 93.0233 747.799 88.9459C753.843 84.8685 760.641 82.8298 768.195 82.8298C774.936 82.8298 780.34 84.8685 784.408 88.9459C788.475 92.9068 790.509 98.324 790.509 105.197C790.509 113.236 787.604 120.167 781.793 125.992C776.098 131.701 766.394 136.244 752.68 139.622C755.586 144.981 761.106 147.661 769.241 147.661C774.471 147.661 780.398 145.855 787.023 142.244C793.763 138.516 799.574 133.681 804.455 127.74C805.85 126.109 807.419 125.293 809.162 125.293ZM765.232 99.9549C760.932 99.9549 757.271 102.46 754.249 107.469C751.344 112.478 749.891 118.536 749.891 125.643V125.992C756.748 124.361 762.152 121.915 766.104 118.653C770.055 115.391 772.031 111.605 772.031 107.294C772.031 105.081 771.391 103.333 770.113 102.052C768.951 100.654 767.324 99.9549 765.232 99.9549Z" fill="#574B9F"/>
<path d="M873.938 146.088C878.703 147.02 881.085 149.641 881.085 153.952C881.085 156.864 879.749 159.485 877.076 161.815C874.519 164.029 870.8 165.135 865.919 165.135C857.551 165.135 850.694 162.572 845.348 157.446C840.119 152.204 837.504 145.389 837.504 137.001C837.504 132.458 839.828 129.196 844.477 127.215C849.59 125.002 853.251 122.672 855.459 120.226C857.667 117.663 858.772 114.575 858.772 110.964C858.772 108.867 858.307 107.294 857.377 106.246C856.563 105.197 855.517 104.673 854.239 104.673C851.101 104.673 847.615 106.945 843.779 111.488C840.061 116.032 836.574 121.915 833.32 129.138C830.066 136.244 827.509 143.583 825.65 151.156C824.371 156.631 822.86 160.359 821.117 162.339C819.49 164.203 816.875 165.135 813.272 165.135C809.67 165.135 806.997 163.854 805.253 161.291C803.626 158.611 802.522 154.534 801.941 149.059C801.36 143.583 801.07 135.545 801.07 124.944C801.07 107.003 802.871 88.3052 806.474 68.8501C810.193 49.395 815.597 33.0853 822.686 19.9211C829.891 6.64036 838.492 0 848.486 0C853.832 0 858.132 2.32995 861.386 6.98986C864.757 11.5333 866.442 17.4746 866.442 24.814C866.442 36.5802 863.013 48.8125 856.157 61.5107C849.3 74.0925 838.143 88.8294 822.686 105.722C822.337 111.779 822.163 118.012 822.163 124.419C827.741 109.857 834.133 99.3142 841.339 92.7903C848.544 86.15 855.285 82.8298 861.561 82.8298C867.372 82.8298 872.02 84.8103 875.507 88.7712C879.11 92.7321 880.911 97.625 880.911 103.45C880.911 109.857 879.284 115.74 876.03 121.099C872.776 126.458 867.197 131.235 859.295 135.428C859.992 138.923 861.386 141.37 863.478 142.768C865.686 144.049 869.173 145.156 873.938 146.088ZM844.825 17.2999C842.734 17.2999 840.409 20.3288 837.852 26.3867C835.296 32.3281 832.797 40.4247 830.356 50.6765C828.032 60.8117 826.114 71.879 824.604 83.8783C831.809 75.3739 837.736 66.1124 842.385 56.0936C847.15 46.0748 849.532 36.988 849.532 28.8332C849.532 25.1052 849.125 22.251 848.312 20.2706C847.498 18.2901 846.336 17.2999 844.825 17.2999Z" fill="#574B9F"/>
</svg>
